<?xml version="1.0" encoding="UTF-8"?><svg id="Layer_1" xmlns="http://www.w3.org/2000/svg" viewBox="0 0 239.1406181 69.67037"><defs><style>.cls-1{fill:#f7f2ef;}</style></defs><g><g><rect class="cls-1" x="60.8741813" y="1.5006356" width=".0017736" height=".0002661" transform="translate(22.3167566 48.631256) rotate(-52.1250166)"/><rect class="cls-1" x="60.863038" y="8.9886096" width=".0240601" height=".0002661" transform="translate(16.4061077 51.5220587) rotate(-52.1250166)"/><rect class="cls-1" x="60.8526999" y="16.4781541" width=".0447364" height=".0002524" transform="translate(13.3968975 57.9888928) rotate(-56.3099319)"/><rect class="cls-1" x="60.8432952" y="23.9699381" width=".0635457" height=".0002403" transform="translate(10.3579196 65.5435512) rotate(-60.9453943)"/><rect class="cls-1" x="60.8353374" y="31.463618" width=".0794613" height=".0002403" transform="translate(3.8072649 69.3979782) rotate(-60.9453943)"/><rect class="cls-1" x="60.8282723" y="38.9598664" width=".0935917" height=".0002256" transform="translate(4.6640004 84.3909131) rotate(-71.5650519)"/><rect class="cls-1" x="60.8224206" y="46.4590414" width=".105295" height=".0002152" transform="translate(2.3165913 95.8061979) rotate(-77.4711919)"/><rect class="cls-1" x="60.8185059" y="53.9611293" width=".1131244" height=".0002132" transform="translate(.5213479 108.5049556) rotate(-83.6598095)"/><rect class="cls-1" x="60.816038" y="61.4664493" width=".1180601" height=".0002113" transform="translate(-6.9380661 115.1814515) rotate(-83.65981)"/><g><polygon class="cls-1" points="60.8749631 1.4998001 60.8749631 1.0011658 33.3266022 24.2837029 33.3266022 24.7844841 60.8749631 1.5017371 60.8749631 1.4998001"/><polygon class="cls-1" points="60.8749631 8.9766309 60.8749631 8.522523 33.3266022 29.2181218 33.3266022 29.6961965 60.8749631 9.0008544 60.8749631 8.9766309"/><polygon class="cls-1" points="60.8749631 16.4558421 60.8749631 16.04304 33.3266022 34.151654 33.3266022 34.6093325 60.8749631 16.5007185 60.8749631 16.4558421"/><polygon class="cls-1" points="60.8749631 23.938227 60.8749631 23.5630203 33.3266022 39.0844861 33.3266022 39.5233552 60.8749631 24.0018894 60.8749631 23.938227"/><polygon class="cls-1" points="60.8749631 31.4239491 60.8749631 31.081367 33.3266022 44.0161046 33.3266022 44.4382647 60.8749631 31.5035271 60.8749631 31.4239491"/><polygon class="cls-1" points="60.8749631 38.9131483 60.8749631 38.5986169 33.3266022 48.946463 33.3266022 49.3546444 60.8749631 39.0068217 60.8749631 38.9131483"/><polygon class="cls-1" points="60.8749631 46.4064782 60.8749631 46.1144666 33.3266022 53.8754445 33.3266022 54.2727977 60.8749631 46.5118198 60.8749631 46.4064782"/><polygon class="cls-1" points="60.8749631 53.904662 60.8749631 53.6287527 33.3266022 58.8027225 33.3266022 59.1917912 60.8749631 54.0178215 60.8749631 53.904662"/><polygon class="cls-1" points="60.8749631 61.4075132 60.8749631 61.1414053 33.3266022 63.7285769 33.3266022 64.1127682 60.8749631 61.5255967 60.8749631 61.4075132"/><polygon class="cls-1" points="60.8749631 68.9150317 60.8749631 68.652541 33.3266022 68.652541 33.3266022 69.0348888 60.8749631 69.0348888 60.8749631 68.9150317"/></g><rect class="cls-1" x="60.8749631" y="68.9150317" width=".00021" height=".1198571"/><rect class="cls-1" x="60.8749313" y="1.0010725" width=".0002735" height=".4988093" transform="translate(14.5457034 40.7590531) rotate(-41.6335398)"/><rect class="cls-1" x="60.8749385" y="8.522453" width=".0002593" height=".4542597" transform="translate(5.3705547 35.2369026) rotate(-33.6900681)"/><rect class="cls-1" x="60.8749419" y="16.04297" width=".0002524" height=".4129421" transform="translate(1.2103818 36.4965016) rotate(-33.6900681)"/><rect class="cls-1" x="60.8749479" y="23.5629619" width=".0002403" height=".3753234" transform="translate(-3.8736379 32.5523915) rotate(-29.0546057)"/><rect class="cls-1" x="60.8749506" y="31.0813203" width=".0002351" height=".3426871" transform="translate(-7.4461811 27.4173254) rotate(-23.9624889)"/><rect class="cls-1" x="60.8749574" y="38.5985819" width=".0002214" height=".3146014" transform="translate(-9.1317789 21.2392127) rotate(-18.4349503)"/><rect class="cls-1" x="60.8749605" y="46.1144433" width=".0002152" height=".2920582" transform="translate(-8.5856898 14.3072513) rotate(-12.5288053)"/><rect class="cls-1" x="60.8749615" y="53.6287294" width=".0002132" height=".2759443" transform="translate(-10.2140192 14.4859966) rotate(-12.5288053)"/><rect class="cls-1" x="60.8749624" y="61.1413937" width=".0002113" height=".2661312" transform="translate(-6.3943056 7.0972995) rotate(-6.3401934)"/><g><polygon class="cls-1" points="60.8749631 1.0027527 60.8749631 1.5017371 88.4233006 24.7845541 88.4233006 23.2824437 60.8749631 0 60.8749631 1.0027527"/><polygon class="cls-1" points="60.8751731 8.5462797 60.8751731 9.000691 88.4235106 29.6964299 88.4235106 28.2615757 60.8751731 7.5661169 60.8751731 8.5462797"/><polygon class="cls-1" points="60.8749631 16.0876363 60.8749631 16.5007185 88.4233006 34.6093325 88.4233006 33.2367871 60.8749631 15.1283598 60.8749631 16.0876363"/><polygon class="cls-1" points="60.8749631 23.6264493 60.8749631 24.0018894 88.4233006 39.5236586 88.4233006 38.2072145 60.8749631 22.6854687 60.8749631 23.6264493"/><polygon class="cls-1" points="60.8751731 31.1606183 60.8751731 31.5034104 88.4235106 44.437728 88.4235106 43.1705709 60.8751731 30.2361367 60.8751731 31.1606183"/><polygon class="cls-1" points="60.8749631 38.6921502 60.8749631 39.0068217 88.4233006 49.3546211 88.4233006 48.1292834 60.8749631 37.7814839 60.8749631 38.6921502"/><polygon class="cls-1" points="60.8751731 46.2197149 60.8751731 46.5118198 88.4235106 54.2726344 88.4235106 53.0809248 60.8751731 45.3200869 60.8751731 46.2197149"/><polygon class="cls-1" points="60.8751731 53.7417955 60.8751731 54.0177748 88.4235106 59.1915578 88.4235106 58.0245384 60.8751731 52.8507787 60.8751731 53.7417955"/><polygon class="cls-1" points="60.8751731 61.2596522 60.8751731 61.5258067 88.4235106 64.1127682 88.4235106 62.9605209 60.8751731 60.373536 60.8751731 61.2596522"/><polygon class="cls-1" points="60.8751731 68.7723981 60.8751731 69.0348888 88.4235106 69.0348888 88.4235106 67.8878455 60.8751731 67.8878455 60.8751731 68.7723981"/></g><rect class="cls-1" x="60.8749631" y="68.652541" width=".00021" height=".2624907"/></g><g><rect class="cls-1" x="16.6627718" y="28.1852792" width=".0010728" height=".0001609" transform="translate(-15.8151496 24.0344417) rotate(-52.125016)"/><rect class="cls-1" x="16.6560315" y="32.7145485" width=".0145533" height=".0001609" transform="translate(-19.3903386 25.7830099) rotate(-52.125018)"/><rect class="cls-1" x="16.6497783" y="37.2447676" width=".0270598" height=".0001527" transform="translate(-23.569415 30.4498291) rotate(-56.3099281)"/><rect class="cls-1" x="16.6440896" y="41.7763414" width=".0384371" height=".0001453" transform="translate(-27.948266 36.0543457) rotate(-60.9453956)"/><rect class="cls-1" x="16.6392762" y="46.309062" width=".048064" height=".0001453" transform="translate(-31.910577 38.3857852) rotate(-60.9453987)"/><rect class="cls-1" x="16.6350027" y="50.8433361" width=".056611" height=".0001365" transform="translate(-36.8403811 50.5735101) rotate(-71.5650509)"/><rect class="cls-1" x="16.6314632" y="55.3793806" width=".06369" height=".0001301" transform="translate(-41.0121691 59.6324628) rotate(-77.4711921)"/><rect class="cls-1" x="16.6290952" y="59.9171869" width=".0684259" height=".000129" transform="translate(-44.7276279 69.8618887) rotate(-83.6598082)"/><rect class="cls-1" x="16.6276025" y="64.4569482" width=".0714113" height=".0001278" transform="translate(-49.2396223 73.9003167) rotate(-83.6598082)"/><g><polygon class="cls-1" points="16.6632447 28.1847739 16.6632447 27.8831637 0 41.9661291 0 42.2690379 16.6632447 28.1859455 16.6632447 28.1847739"/><polygon class="cls-1" points="16.6632447 32.7073029 16.6632447 32.4326255 0 44.9508232 0 45.2399974 16.6632447 32.721955 16.6632447 32.7073029"/><polygon class="cls-1" points="16.6632447 37.2312717 16.6632447 36.9815791 0 47.9349809 0 48.211818 16.6632447 37.2584162 16.6632447 37.2312717"/><polygon class="cls-1" points="16.6632447 41.7571603 16.6632447 41.530208 0 50.9187152 0 51.184175 16.6632447 41.7956679 16.6632447 41.7571603"/><polygon class="cls-1" points="16.6632447 46.2850674 16.6632447 46.0778489 0 53.9017154 0 54.1570684 16.6632447 46.3332019 16.6632447 46.2850674"/><polygon class="cls-1" points="16.6632447 50.8150777 16.6632447 50.6248263 0 56.8839534 0 57.1308511 16.6632447 50.8717381 16.6632447 50.8150777"/><polygon class="cls-1" points="16.6632447 55.3475865 16.6632447 55.1709567 0 59.8653585 0 60.1057065 16.6632447 55.4113048 16.6632447 55.3475865"/><polygon class="cls-1" points="16.6632447 59.8830314 16.6632447 59.7161415 0 62.8457332 0 63.0810702 16.6632447 59.9514784 16.6632447 59.8830314"/><polygon class="cls-1" points="16.6632447 64.4212994 16.6632447 64.2603381 0 65.8252469 0 66.0576336 16.6632447 64.4927248 16.6632447 64.4212994"/><polygon class="cls-1" points="16.6632447 68.9623905 16.6632447 68.8036171 0 68.8036171 0 69.0348888 16.6632447 69.0348888 16.6632447 68.9623905"/></g><rect class="cls-1" x="16.6632447" y="68.9623905" width=".000127" height=".0724982"/><rect class="cls-1" x="16.6632254" y="27.8831073" width=".0001655" height=".301716" transform="translate(-14.4157566 18.1516182) rotate(-41.6335402)"/><rect class="cls-1" x="16.6632298" y="32.4325832" width=".0001568" height=".2747692" transform="translate(-15.2679701 14.7132573) rotate(-33.6900685)"/><rect class="cls-1" x="16.6632318" y="36.9815368" width=".0001527" height=".2497773" transform="translate(-17.7843428 15.4751521) rotate(-33.6900651)"/><rect class="cls-1" x="16.6632355" y="41.5301728" width=".0001453" height=".2270228" transform="translate(-18.1270052 13.3329731) rotate(-29.0546051)"/><rect class="cls-1" x="16.6632371" y="46.0778207" width=".0001422" height=".207282" transform="translate(-17.3198839 10.7479197) rotate(-23.96249)"/><rect class="cls-1" x="16.6632412" y="50.6248051" width=".0001339" height=".1902937" transform="translate(-15.1839513 7.8721815) rotate(-18.4349491)"/><rect class="cls-1" x="16.6632431" y="55.1709426" width=".0001301" height=".176658" transform="translate(-11.5906141 4.9306633) rotate(-12.5288048)"/><rect class="cls-1" x="16.6632437" y="59.7161273" width=".000129" height=".1669111" transform="translate(-12.5755495 5.0387834) rotate(-12.5288087)"/><rect class="cls-1" x="16.6632443" y="64.260331" width=".0001278" height=".1609754" transform="translate(-7.0033377 2.2336801) rotate(-6.3401918)"/><g><polygon class="cls-1" points="16.6632447 27.8841236 16.6632447 28.1859455 33.3264752 42.2690802 33.3264752 41.360495 16.6632447 27.2775861 16.6632447 27.8841236"/><polygon class="cls-1" points="16.6633717 32.4469953 16.6633717 32.7218562 33.3266022 45.2401386 33.3266022 44.3722348 16.6633717 31.8541218 16.6633717 32.4469953"/><polygon class="cls-1" points="16.6632447 37.0085542 16.6632447 37.2584162 33.3264752 48.211818 33.3264752 47.3816031 16.6632447 36.4283143 16.6632447 37.0085542"/><polygon class="cls-1" points="16.6632447 41.5685745 16.6632447 41.7956679 33.3264752 51.1843585 33.3264752 50.3880778 16.6632447 40.9994013 16.6632447 41.5685745"/><polygon class="cls-1" points="16.6633717 46.1257858 16.6633717 46.3331313 33.3266022 54.1567437 33.3266022 53.3902753 16.6633717 45.5665924 16.6633717 46.1257858"/><polygon class="cls-1" points="16.6632447 50.681402 16.6632447 50.8717381 33.3264752 57.1308369 33.3264752 56.3896639 16.6632447 50.1305651 16.6632447 50.681402"/><polygon class="cls-1" points="16.6633717 55.2346185 16.6633717 55.4113048 33.3266022 60.1056077 33.3266022 59.3847754 16.6633717 54.6904583 16.6633717 55.2346185"/><polygon class="cls-1" points="16.6633717 59.7845179 16.6633717 59.9514502 33.3266022 63.080929 33.3266022 62.3750311 16.6633717 59.2455664 16.6633717 59.7845179"/><polygon class="cls-1" points="16.6633717 64.3318623 16.6633717 64.4928519 33.3266022 66.0576336 33.3266022 65.360671 16.6633717 63.7958751 16.6633717 64.3318623"/><polygon class="cls-1" points="16.6633717 68.8761154 16.6633717 69.0348888 33.3266022 69.0348888 33.3266022 68.3410739 16.6633717 68.3410739 16.6633717 68.8761154"/></g><rect class="cls-1" x="16.6632447" y="68.8036171" width=".000127" height=".1587734"/></g></g><g><path class="cls-1" d="M102.5544012,68.7696322c-.1863102-.1824947-.2779772-.4037183-.2779772-.665431V15.168401c0-.2605391,.091667-.4820561,.2779772-.665431,.1845245-.1824947,.4095253-.2743289,.6750025-.2743289h19.3816189c3.7595376,0,7.0696689,.6534016,9.9297984,1.9578577,2.8595343,1.3053362,5.0696615,3.1713597,6.6321673,5.5989507,1.5619105,2.4275909,2.343461,5.2600738,2.343461,8.4962749v22.7088604c0,3.2373747-.7815505,6.0686839-2.343461,8.4962749-1.5625057,2.4275909-3.7726329,4.294788-6.6321673,5.5992441-2.8601296,1.3056296-6.1702608,1.9575643-9.9297984,1.9575643h-19.3816189c-.2654772,0-.490478-.0903672-.6750025-.2740355Zm9.3333677-7.5568083h11.1208743c2.8059627,0,5.0440662-.873745,6.7119295-2.6229953,1.6684585-1.7486635,2.5285807-4.0847137,2.5815571-7.0087373V31.7695552c0-2.975662-.8476222-5.3369445-2.541676-7.0867817-1.6952443-1.7483701-3.9720384-2.6232887-6.8315728-2.6232887h-11.0411121c-.2654772,0-.3970253,.1308564-.3970253,.3916889V60.8214284c0,.2617127,.1315481,.3913955,.3970253,.3913955Z"/><path class="cls-1" d="M181.2731432,14.5029699c.1845245-.1824947,.4095253-.2743289,.6750025-.2743289h7.307765c.2642867,0,.4892875,.0918342,.6750025,.2743289,.1851197,.1833749,.2785725,.4048919,.2785725,.665431v52.9358002c0,.2617127-.0934527,.4829363-.2785725,.665431-.185715,.1836683-.4107158,.2740355-.6750025,.2740355h-7.307765c-.2654772,0-.490478-.0903672-.6750025-.2740355-.1863102-.1824947-.2779772-.4037183-.2779772-.665431v-22.3958026c0-.2605391-.1333338-.3919823-.3976205-.3919823h-20.2554317c-.2654772,0-.3970253,.1314432-.3970253,.3919823v22.3958026c0,.2617127-.0934527,.4829363-.2779772,.665431-.1863102,.1836683-.411311,.2740355-.6755977,.2740355h-7.307765c-.2654772,0-.490478-.0903672-.6750025-.2740355-.1863102-.1824947-.2779772-.4037183-.2779772-.665431V15.168401c0-.2605391,.091667-.4820561,.2779772-.665431,.1845245-.1824947,.4095253-.2743289,.6750025-.2743289h7.307765c.2642867,0,.4892875,.0918342,.6755977,.2743289,.1845245,.1833749,.2779772,.4048919,.2779772,.665431v21.925776c0,.2622995,.1315481,.3919823,.3970253,.3919823h20.2554317c.2642867,0,.3976205-.1296828,.3976205-.3919823V15.168401c0-.2605391,.091667-.4820561,.2779772-.665431Z"/><path class="cls-1" d="M208.876221,67.360139c-3.0184635-1.539176-5.3488292-3.7197242-6.9899067-6.5387106-1.6422679-2.8189864-2.4625091-6.0551875-2.4625091-9.7103637v-18.9498206c0-3.7062278,.8202411-6.9559253,2.4625091-9.7493859,1.6410775-2.7919936,3.9714432-4.9590454,6.9899067-6.499395,3.0184635-1.5394694,6.5137144-2.310231,10.4857529-2.310231,3.9178716,0,7.3732414,.7575586,10.3661096,2.2709154,2.9910824,1.5148238,5.3083529,3.576545,6.9500256,6.1863373,1.6410775,2.6109659,2.4625091,5.5599285,2.4625091,8.8486482v.6267022c0,.2617127-.0928575,.4832297-.2779772,.665431-.1863102,.1836683-.4107158,.2740355-.6750025,.2740355h-7.228598c-.2654772,0-.490478-.0903672-.6750025-.2740355-.1863102-.1822013-.2779772-.4037183-.2779772-.665431v-.3916889c0-2.8189864-.9672655-5.1412468-2.8994154-6.9694217-1.9339357-1.8267079-4.5154928-2.7406486-7.7446714-2.7406486-3.2309643,0-5.8262119,.9532563-7.7845525,2.858302-1.9601263,1.9062193-2.9392965,4.4241774-2.9392965,7.5565149v19.5765228c0,3.1323375,1.0327419,5.6514692,3.0982257,7.5568083,2.0648886,1.9065127,4.7387079,2.858302,8.0226486,2.858302,3.1773926,0,5.6791876-.8221066,7.5065752-2.4669065,1.8267924-1.6442131,2.7404863-3.9016321,2.7404863-6.7734305v-4.8551819c0-.2605391-.1327386-.3913955-.3976205-.3913955h-9.770274c-.2654772,0-.4898828-.0903672-.6750025-.2740355-.1863102-.1824947-.2779772-.4037183-.2779772-.665431v-5.7946484c0-.2611259,.091667-.4823495,.2779772-.6660178,.1851197-.1819079,.4095253-.2740355,.6750025-.2740355h18.3494723c.2642867,0,.4886923,.0921276,.6750025,.2740355,.1851197,.1836683,.2779772,.4048919,.2779772,.6660178v10.023128c0,6.0035491-1.7869113,10.6762363-5.3619245,14.0168877-3.5744179,3.3412383-8.3797927,5.0118574-14.4167197,5.0118574-3.9720384,0-7.4672894-.7698814-10.4857529-2.310231Z"/></g></svg>