<?xml version="1.0" encoding="UTF-8"?><svg id="Livello_1" xmlns="http://www.w3.org/2000/svg" xmlns:xlink="http://www.w3.org/1999/xlink" viewBox="0 0 220.3659668 103.2350922"><defs><style>.cls-1{fill:#252620;}.cls-2{fill:#333;}.cls-3{clip-path:url(#clippath);}.cls-4{fill:none;}</style><clipPath id="clippath"><rect class="cls-4" width="220.3659668" height="50"/></clipPath></defs><g class="cls-3"><path class="cls-2" d="M203.0461426,46.0207214v.8450012h2.0959473v.1579895c-.0089722,1.1359863-.6879883,2.1129913-2.1219482,2.1129913-1.4260254,0-2.4210205-1.1520081-2.4210205-2.8699799,0-1.6549988,.7659912-2.9230042,2.4470215-2.9230042,1.1099854,0,1.71698,.571991,1.9279785,1.3829956h1.0299683c-.2719727-1.32901-1.25-2.2359924-2.940979-2.2359924-1.117981,0-1.9719849,.3959961-2.552002,1.0559998-.598999,.6779785-.9160156,1.6369934-.9160156,2.7200012,0,1.09198,.335022,2.0249786,.9330444,2.6859741,.598999,.651001,1.4349976,1.0470123,2.447998,1.0470123,.9320068,0,1.7080078-.3960114,2.2279663-1.1800079h.026001l.2630005,1.0220032h.6260376v-3.8209839h-3.072998Zm-12.4219971-3.3900146v7.2109985h-1.0210571l-2.9489746-4.5159912c-.3439941-.5379944-.8200073-1.4179993-.8200073-1.4179993h-.026001s.0620117,.9329834,.0620117,1.5140076v4.4199829h-.9329834v-7.2109985h1.0390015l2.9580078,4.5169983c.3429565,.5370178,.8009644,1.4349976,.8009644,1.4349976h.026001s-.0609741-.9419861-.0609741-1.5409851v-4.4110107h.9240112Zm-15.9260254,7.2109985h.9859619v-7.2099915h-.9859619v7.2099915Zm-8.6810303-7.2109985l-2.5179443,7.2109985h-1.0830078l-2.4910278-7.2109985h1.0650024l1.5759888,4.8070068c.177002,.5189819,.4320068,1.5409851,.4320068,1.5409851h.0170288s.2559814-1.0379944,.4140015-1.5409851l1.5579834-4.8070068h1.0299683Zm-15.7669678,7.2109985h.9869995v-7.2099915h-.9869995v7.2099915Zm-8.8129883-.8980103v.8980103h-4.710022v-7.2109985h.9849854v6.3129883h3.7250366Zm-27.3190308,.0350037h-1.5579834v-5.4849854h1.6199951c1.6370239,0,2.2369995,1.1180115,2.2369995,2.7730103,0,1.6559753-.6699829,2.7119751-2.2990112,2.7119751m.1060181-6.3479919h-2.6589966v7.2109985h2.5969849c2.1569824,0,3.2850342-1.4260101,3.2850342-3.5749817,0-2.1570129-1.06604-3.6360168-3.2230225-3.6360168m-11.6290283,6.3129883v.8980103h-5.2299805v-7.2109985h5.1240234v.8720093h-4.1380005v2.1829834h3.7420044v.8190002h-3.7420044v2.4389954h4.2439575Zm-19.756958-6.3129883v.8720093h2.3689575v6.3389893h.9940186v-6.3389893h2.367981v-.8720093h-5.730957Zm-7.3590088,7.2109985h-1.0830078l-.46698-1.3730011-.2470093-.7310028-.2640381-.776001-.2459717-.7209778-.4400024-1.2940063c-.2470093-.6960144-.440979-1.5320129-.440979-1.5320129h-.026001s-.2109985,.8619995-.447998,1.5320129l-.4500122,1.2940063-.2550049,.7209778-.2730103,.776001-.2559814,.7310028-.4750366,1.3730011h-1.0209961l2.632019-7.2109985h1.1090088l2.651001,7.2109985Zm-14.835022-7.2109985l-1.5579834,4.8070068c-.1680298,.5029907-.4140015,1.5409851-.4140015,1.5409851h-.0269775s-.2460327-1.0220032-.4220581-1.5409851l-1.5759888-4.8070068h-1.0650024l2.4819946,7.2109985h1.0930176l2.5180054-7.2109985h-1.0310059Zm-13.4609985,6.3129883v.8980103h-5.2290039v-7.2109985h5.1229858v.8720093h-4.1380005v2.1829834h3.7420044v.8190002h-3.7420044v2.4389954h4.2440186Zm-17.7490234,0v-6.3129883h-.9849854v7.2109985h4.710022v-.8980103h-3.7250366Zm-9.9569702,0v.8980103h-5.2290039v-7.2109985h5.1229858v.8720093h-4.1369629v2.1829834h3.7420044v.8190002h-3.7420044v2.4389954h4.242981ZM211.6260986,24.6737061c.3330078-.4889832,.6350098-1.3110046,.1750488-2.4599915l-1.6270142-3.6199951-1.0079956-2.2510071-1.3179932-2.9389954-.0810547-.1799927-5.0149536-11.2770081-5.5800171,12.098999-.6240234,1.3529968-1.2359619,2.6990051-1.6960449,3.6499939c-.4899902,1.0950012-.4959717,2.0690002-.0119629,2.8160095,.2689819,.4140015,.6759644,.7399902,1.1950073,.9619751h-5.4520264c1.0150146-.6009827,2.3330078-1.9129944,2.9630127-3.38797L202.5651245-.0002747h5.0379639l10.0110474,22.2259827c.5939941,1.3120117,1.8659668,2.6759949,2.7509766,3.2999878h-9.684021c.3790283-.2099915,.7060547-.4959717,.9450073-.8519897m-33.1619873,.8519897c.8010254-.4389954,1.6309814-1.3639832,1.6309814-3.1639709V3.1647034c0-1.8009949-.8299561-2.7250061-1.6309814-3.1640015h8.7139893c-.8009644,.4389954-1.631958,1.3630066-1.631958,3.1640015V22.3617249c0,1.7999878,.8309937,2.7249756,1.631958,3.1639709h-8.7139893Zm-13.0739746,0c-.8010254-.4389954-1.6300049-1.3639832-1.6300049-3.1639709V.8607178h5.5579834c2.8989868,0,4.5759888,2.5229797,5.2509766,4.4239807V.0007019h-27.0700073V5.2846985c.6750488-1.901001,2.3500366-4.4239807,5.2510376-4.4239807h5.5579834V22.3617249c0,1.7999878-.8300171,2.7249756-1.6309814,3.1639709h8.7130127Zm-46.0250244,0c.802002-.4389954,1.632019-1.3639832,1.632019-3.1639709V3.1647034c0-1.8009949-.8300171-2.7250061-1.632019-3.1640015h24.7789917V5.2846985c-.6749878-1.901001-2.3510132-4.4239807-5.2520142-4.4239807h-12.4439697V12.2286987h7.8959961c2.9000244,0,4.5759888-1.7929993,5.2509766-3.144989v7.118988c-.6749878-1.3379822-2.3509521-3.1129761-5.2509766-3.1129761h-7.8959961v9.3139954c0,1.367981,.5720215,2.1279907,1.6989746,2.2599792l11.0390015,.0010071c2.8990479,0,4.5750122-2.5220032,5.2490234-4.4239807v5.2849731h-25.0700073Zm-16.2260132,0L113.3981323,3.3887024c.6279907-1.4779968,1.9439697-2.7859802,2.9589844-3.3880005h-5.4470215c.519043,.2220154,.9260254,.5469971,1.1950073,.9630127,.4819946,.743988,.4769897,1.7170105-.0150146,2.8169861l-9.1339722,19.7969971L93.9061279,3.3117065c-.4580078-1.1459961-.15802-1.9719849,.1740112-2.4629822,.2379761-.3510132,.5689697-.6410217,.947998-.8480225h-9.6849976c.8849487,.625,2.157959,1.9900208,2.75,3.3000183l10.0119629,22.2249756h5.0339966Zm-39.1159668,0c.8009644-.4389954,1.631958-1.3639832,1.631958-3.1639709V3.1647034c0-1.8009949-.8309937-2.7250061-1.631958-3.1640015h8.7139893c-.8010254,.4389954-1.6309814,1.3630066-1.6309814,3.1640015V22.403717c0,1.367981,.5709839,2.1279907,1.6989746,2.2599792l10.7449951,.0010071c2.8670044,0,4.5679932-2.8719788,5.2520142-4.992981v5.8539734h-24.7789917Zm-4.1040039,0v-5.2849731c-.6730347,1.9019775-2.3500366,4.4239807-5.2490234,4.4239807l-11.0390015-.0010071c-1.1270142-.1319885-1.6989746-.8919983-1.6989746-2.2599792V13.0897217h7.8959961c2.8999634,0,4.5759888,1.7749939,5.2509766,3.1129761v-7.118988c-.6749878,1.3519897-2.3510132,3.144989-5.2509766,3.144989h-7.8959961V.8607178h12.4450073c2.8999634,0,4.5759888,2.5229797,5.2509766,4.4239807V.0007019h-24.7780151c.8010254,.4389954,1.6310425,1.3630066,1.6310425,3.1640015V22.3617249c0,1.7999878-.8300171,2.7249756-1.6310425,3.1639709h25.0690308Zm-38.2999878,0c.8009644-.4389954,1.631958-1.3639832,1.631958-3.1639709V13.1307068H7.0831299v9.2310181c0,1.7999878,.8299561,2.7249756,1.6309814,3.1639709H.0001221c.802002-.4389954,1.632019-1.3639832,1.632019-3.1639709V3.1647034C1.6321411,1.3637085,.802124,.4396973,.0001221,.0007019H8.7141113c-.8010254,.4389954-1.6309814,1.3630066-1.6309814,3.1640015V12.1447144H23.2510986V3.1647034C23.2510986,1.3637085,22.420105,.4396973,21.6191406,.0007019h8.7139893c-.8010254,.4389954-1.632019,1.3630066-1.632019,3.1640015V22.3617249c0,1.7999878,.8309937,2.7249756,1.632019,3.1639709h-8.7139893Z"/></g><path class="cls-1" d="M115.0545044,87.2350922c0,5.5230103-10,16-10,16,0,0-10-10.4769897-10-16,0-5.522995,4.4769897-10,10-10,5.5229492,0,10,4.477005,10,10"/></svg>