<svg width="23" height="39" viewBox="0 0 23 39" fill="none" xmlns="http://www.w3.org/2000/svg">
<g clip-path="url(#clip0_441_405)">
<path d="M22.5379 26.4025C22.9635 27.2676 23.1115 28.2228 22.9264 29.0879C22.7414 30.025 22.1863 30.7639 21.4092 31.1244C20.9651 31.3226 20.706 31.4488 20.5395 31.5208L21.4092 31.9173C22.1863 32.2778 22.7414 33.0167 22.9264 33.9538C23.093 34.8009 22.9635 35.7561 22.5379 36.6391C21.8347 38.0809 20.521 39.0001 19.1887 39.0001C18.8001 39.0001 18.4116 38.9099 18.0785 38.7658L11.5097 35.72C11.4912 35.72 11.4727 35.738 11.4542 35.738C9.69636 36.5671 8.95621 36.9095 8.23457 37.2339C7.47592 37.5763 6.77279 37.9007 4.94093 38.7658C4.58936 38.928 4.21929 39.0001 3.83071 39.0001C2.49845 39.0001 1.18469 38.0809 0.481556 36.6391C0.0559727 35.7741 -0.0920562 34.8189 0.09298 33.9538C0.278016 33.0167 0.833125 32.2778 1.61028 31.9173L2.47995 31.5208L1.61028 31.1244C0.833125 30.7639 0.278016 30.025 0.09298 29.0879C-0.0735526 28.2408 0.0559727 27.2856 0.481556 26.4025C0.907139 25.5375 1.57327 24.8166 2.36893 24.4201C3.2386 23.9696 4.18228 23.9155 4.95943 24.294L11.5282 27.3397L18.097 24.294C18.8742 23.9335 19.8178 23.9876 20.6875 24.4201C21.4462 24.8346 22.1123 25.5375 22.5379 26.4025ZM20.669 29.6105C21.3351 29.3041 21.4832 28.1507 21.0021 27.1415L17.1903 28.9076C17.0793 28.9617 16.9498 28.9977 16.8203 28.9977C16.5057 28.9977 16.1911 28.8175 16.0431 28.5292C15.8396 28.1147 16.0246 27.61 16.4502 27.4118L19.7808 25.8619C19.5403 25.7538 19.1702 25.6276 18.8186 25.7898L13.5081 28.2588L18.5411 30.6017C19.0222 30.3854 19.2442 30.2773 19.3923 30.2052C19.6698 30.0611 19.7438 30.025 20.669 29.6105ZM20.9836 35.9183C21.4832 34.909 21.3351 33.7376 20.669 33.4312C20.558 33.3771 20.4285 33.3591 20.2989 33.3591C19.6513 33.3591 18.8927 33.9358 18.5041 34.7648C18.0045 35.7741 18.1525 36.9455 18.8186 37.2519C18.9297 37.306 19.0592 37.324 19.1887 37.324C19.8363 37.324 20.5765 36.7473 20.9836 35.9183ZM18.3376 32.3499L4.20078 25.7898C3.92323 25.6636 3.59016 25.6997 3.2571 25.8439L9.14125 28.6914C9.56683 28.8896 9.73337 29.3942 9.52983 29.8087C9.3818 30.0971 9.06724 30.2773 8.75267 30.2773C8.62315 30.2773 8.49362 30.2413 8.3641 30.1872L2.01736 27.1054C1.75831 27.6461 1.66579 28.2408 1.75831 28.7454C1.81382 28.9797 1.94334 29.4123 2.33192 29.5925L16.4687 36.1525C16.4687 35.9543 16.4687 35.7741 16.4872 35.5758L11.1396 33.0888C10.7141 32.8905 10.529 32.3859 10.7326 31.9714C10.9361 31.5569 11.4542 31.3767 11.8798 31.5749L16.9868 33.9358C17.3199 33.305 17.7824 32.7464 18.3376 32.3499ZM9.51132 34.8009L5.18148 32.7824C5.53304 33.1428 5.84761 33.5574 6.06965 34.044C6.40271 34.7288 6.56925 35.4677 6.53224 36.1706C6.90231 36.0084 7.19837 35.8642 7.51293 35.72C8.03103 35.4857 8.56764 35.2334 9.51132 34.8009ZM4.7744 36.4049C4.86691 35.9002 4.7744 35.3055 4.51535 34.7648C4.10827 33.9358 3.36812 33.3591 2.72049 33.3591C2.59097 33.3591 2.46144 33.3771 2.35042 33.4312C1.96185 33.6114 1.83232 34.044 1.77681 34.2782C1.68429 34.7829 1.77681 35.3776 2.03586 35.9183C2.44294 36.7473 3.18308 37.324 3.83071 37.324C3.96024 37.324 4.08976 37.306 4.20078 37.2519C4.58936 37.0717 4.73739 36.6391 4.7744 36.4049Z" fill="#6AC17E"/>
<path d="M21.7418 10.2366C23.0001 13.1562 23.1666 15.8415 22.2599 18.2384C21.8158 19.4099 21.1497 20.5453 20.317 21.5726L20.28 21.6086C19.4289 22.6719 18.5222 23.6631 17.6525 23.6631C17.2639 23.6631 16.9309 23.4829 16.7273 23.1765C15.6911 21.6446 15.2285 20.8156 15.247 18.0582C15.099 18.4006 15.0065 18.7431 14.9325 19.0134C14.7845 19.5541 14.5994 20.1848 13.9333 20.275C13.8778 20.275 13.8038 20.293 13.7483 20.293C13.3412 20.293 12.9896 20.1128 12.7121 19.7703C12.3975 19.3738 11.9719 18.4908 12.0089 15.5171C12.0089 15.1206 12.0274 14.7061 12.0459 14.3096C11.8979 14.5799 11.7499 14.9043 11.6203 15.2648C11.2133 16.4723 11.1022 17.9321 11.0652 18.9053C11.0467 19.2837 10.7877 19.5901 10.3991 19.6802C10.029 19.7703 9.64045 19.6081 9.45542 19.2657C9.32589 19.0314 8.77078 18.4187 8.04914 17.842C8.01213 17.8059 7.95662 17.7699 7.90111 17.7338C8.30819 18.7791 8.62275 20.0407 8.38221 21.2482C8.25268 21.933 7.36451 23.4649 6.8094 23.8253C6.62436 23.9515 6.42082 24.0055 6.18027 24.0055C5.8102 24.0055 5.25509 23.8794 4.03386 22.8701C3.47875 22.4016 2.84962 21.8068 2.64608 21.5365C1.6839 20.275 1.12879 18.7791 1.05477 17.2112C0.962254 15.0846 1.81342 13.2823 2.64608 11.5162C3.27521 10.1645 3.88583 8.90296 4.05236 7.53327C4.08937 7.19085 4.34842 6.92052 4.68148 6.83041C5.01455 6.7403 5.38462 6.86645 5.58816 7.13678C6.16177 7.89372 6.58735 9.15527 6.84641 10.3087C8.77078 7.31701 8.77078 3.37015 8.56724 1.08133C8.54874 0.684843 8.71527 0.432532 8.82629 0.306377C9.01133 0.108133 9.28888 0 9.56644 0C9.93651 0 10.4546 0.108133 12.1199 1.47782C12.7491 1.98244 13.7298 2.86553 13.9703 3.18993C14.877 4.45148 15.6911 5.64094 16.2647 6.92052C16.3388 6.45194 16.3203 5.96534 16.2277 5.40665C16.1537 5.04621 16.3573 4.66775 16.7273 4.50555C16.8754 4.45148 17.0234 4.41543 17.1899 4.41543C18.1521 4.41543 19.0403 5.53281 20.0765 7.20887C20.8536 8.4524 21.5753 9.82209 21.7418 10.2366ZM20.6501 17.6617C21.4088 15.6793 21.2422 13.3905 20.169 10.8854C20.058 10.6331 19.4844 9.47967 18.7812 8.32625C18.4667 7.82163 18.2076 7.42514 18.0041 7.11876C17.8561 8.14603 17.449 9.02911 16.7643 9.75C16.5608 10.0023 16.2277 10.0924 15.9132 10.0023C15.5986 9.93022 15.3581 9.67791 15.2841 9.35351C14.914 7.51525 13.8408 5.91128 12.5825 4.16312C12.3235 3.85675 11.2133 2.88355 10.3621 2.25277C10.4546 5.31654 9.99202 9.82209 6.99443 12.8859C6.77239 13.1201 6.42082 13.2103 6.10626 13.1021C5.7917 13.012 5.56966 12.7417 5.51414 12.4353C5.38462 11.6423 5.23659 10.9034 5.07006 10.2726C4.81101 10.9395 4.51495 11.5702 4.20039 12.219C3.42324 13.8591 2.70159 15.427 2.77561 17.1391C2.83112 18.3646 3.2567 19.536 4.01535 20.5273C4.2559 20.8336 5.40312 21.8609 6.01374 22.2213C6.27279 21.8429 6.66137 21.1761 6.69838 20.9238C7.01294 19.4099 5.97674 17.5536 5.47714 16.6525C5.44013 16.5804 5.38462 16.5083 5.34761 16.4362C5.21809 16.1659 5.21809 15.8595 5.38462 15.6072C5.55115 15.3549 5.82871 15.1927 6.14327 15.2107C7.25349 15.2468 8.38221 15.9677 9.14085 16.5624C9.27038 16.6525 9.39991 16.7606 9.52943 16.8688C9.62195 16.1659 9.76998 15.427 9.99202 14.7421C10.5471 13.1021 11.4723 12.0028 12.7676 11.4441C13.0636 11.2999 13.4152 11.354 13.6742 11.5702C13.9333 11.7865 14.0258 12.1109 13.9518 12.4173C13.8963 12.6516 13.7483 14.0393 13.7298 15.5712C13.7298 16.22 13.7298 16.7606 13.7668 17.1932C13.8038 17.1391 13.8223 17.067 13.8593 17.0129C14.1923 16.3461 14.8955 15.4991 15.8207 15.0665C16.0982 14.9404 16.4313 14.9584 16.6718 15.1206C16.9309 15.2828 17.0604 15.5712 17.0419 15.8595C16.8014 19.7343 17.0234 20.5273 17.8376 21.7528C18.0596 21.5545 18.4112 21.1941 18.9108 20.5633C18.9293 20.5453 18.9478 20.5273 18.9478 20.5092C19.6879 19.6442 20.2615 18.671 20.6501 17.6617Z" fill="#6AC17E"/>
</g>
<defs>
<clipPath id="clip0_441_405">
<rect width="23" height="39" fill="white"/>
</clipPath>
</defs>
</svg>
