<svg width="46" height="30" viewBox="0 0 46 30" fill="none" xmlns="http://www.w3.org/2000/svg">
<g clip-path="url(#clip0_441_409)">
<path d="M46.0002 21.162C45.9251 21.7335 45.8687 22.3049 45.756 22.8763C45.4931 24.1906 44.4224 25.1049 43.1076 25.1239C42.7319 25.1239 42.5629 25.2382 42.4878 25.6382C41.9618 28.0382 39.7642 29.8859 37.4914 30.0001C34.5613 30.1525 32.3448 28.1716 31.7626 25.8859C31.556 25.124 31.556 25.1239 30.8046 25.1239C25.6205 25.1239 20.4551 25.124 15.2709 25.1049C14.8577 25.1049 14.7074 25.2192 14.6135 25.6382C14.0313 28.1144 11.8712 29.9049 9.52329 30.0001C6.76216 30.1144 4.43305 28.2287 3.86956 25.7525C3.75686 25.2382 3.53146 25.1239 3.06188 25.1239C1.50288 25.143 0.413451 24.2287 0.150486 22.7049C0.11292 22.4382 0.0753535 22.1525 0.0753535 21.8859C0.000220766 20.2668 -0.0561288 18.6478 0.319535 17.0668C0.676415 15.543 1.65314 14.4573 2.74256 13.4668C3.62537 12.6287 4.56453 11.8478 5.61639 11.2382C7.47593 10.1525 9.03493 8.64776 10.7066 7.35252C13.1484 5.46681 15.6278 3.61919 18.3138 2.09538C19.7413 1.27633 21.244 0.723949 22.8593 0.495378C23.3289 0.438235 23.7234 0.685854 23.7985 1.12395C23.8736 1.5049 23.6295 1.96204 23.1974 2.01919C19.6474 2.53347 16.9051 4.78109 14.05 6.78109C12.1342 8.13347 10.331 9.65728 8.52778 11.162C7.53227 11.9811 6.36772 12.5335 5.35343 13.3144C4.77115 13.7716 4.20765 14.2478 3.64416 14.7239C2.42325 15.7525 1.76584 17.0478 1.59679 18.6478C1.46531 19.943 1.44653 21.2382 1.67192 22.5144C1.82219 23.3335 2.87405 23.8478 3.58781 23.4859C3.75686 23.4097 3.75686 23.2382 3.79442 23.1049C4.41427 20.4382 6.63068 18.6478 9.33546 18.6668C11.7773 18.6859 13.9561 20.4382 14.5947 22.9335C14.7262 23.4287 14.9141 23.543 15.3836 23.543C20.5866 23.5239 25.7895 23.5239 31.0112 23.543C31.462 23.543 31.6499 23.4097 31.7626 22.9525C32.3824 20.3811 34.6364 18.6478 37.2848 18.6859C39.7454 18.724 41.9806 20.5716 42.5441 23.0859C42.6192 23.4478 42.7507 23.5811 43.1076 23.562C43.765 23.543 44.2158 23.143 44.3097 22.4382C44.8357 18.6287 44.4976 14.8954 43.2767 11.2573C42.5253 9.00966 41.6989 6.81919 40.3653 4.83823C39.1256 3.00966 37.4727 2.01919 35.275 1.86681C33.284 1.73347 31.2742 1.61919 29.2832 1.61919C28.6446 1.61919 27.9872 1.63823 27.3673 1.80966C26.2215 2.11443 25.6205 2.85728 25.5829 4.07633C25.5641 5.1049 25.5829 6.11443 25.5641 7.143C25.5641 7.42871 25.6768 7.56204 25.9586 7.63824C28.0623 8.26681 29.3583 10.0192 29.3583 12.2478C29.3583 13.2573 29.3583 14.2668 29.3583 15.2763C29.3583 16.2287 28.8324 16.762 27.8932 16.8001C27.2922 16.8192 27.2922 16.8192 27.2922 17.4478C27.2922 17.8287 27.311 18.2097 27.2734 18.5906C27.2358 19.124 26.8977 19.4668 26.4657 19.4478C26.0149 19.4287 25.7332 19.0859 25.7332 18.5335C25.7332 18.0954 25.7144 17.6382 25.7332 17.2001C25.752 16.8763 25.6205 16.762 25.3012 16.7811C24.9443 16.8001 24.5874 16.8001 24.2305 16.7811C23.93 16.762 23.7985 16.8763 23.7985 17.2001C23.8173 17.6763 23.8173 18.1525 23.7985 18.6287C23.7797 19.1239 23.498 19.4478 23.066 19.4478C22.6339 19.4668 22.3146 19.1239 22.2959 18.6287C22.2771 18.2097 22.2771 17.7716 22.2959 17.3525C22.3146 16.9525 22.2019 16.743 21.7699 16.8001C21.6572 16.8192 21.5257 16.8001 21.413 16.7811C20.7181 16.6859 20.2485 16.2859 20.2109 15.5811C20.0982 14.0954 19.9855 12.5906 20.2861 11.143C20.6617 9.31442 21.8075 8.13347 23.5543 7.61919C23.8736 7.52395 23.9863 7.39062 23.9863 7.06681C23.9676 6.11443 23.9863 5.18109 23.9863 4.22871C23.9863 2.01919 25.226 0.533473 27.3673 0.171568C28.4567 0.000139426 29.5649 -0.0189082 30.6731 0.0382347C31.8001 0.0953775 32.9459 0.0572823 34.0729 0.15252C35.0872 0.247758 36.1015 0.323949 37.097 0.55252C39.1631 1.02871 40.6094 2.38109 41.7552 4.11443C43.0888 6.11443 43.9153 8.36204 44.6854 10.6287C45.3428 12.6097 45.7936 14.6478 45.9627 16.743C45.9627 16.8192 46.0002 16.8954 46.019 16.9716C46.0002 18.343 46.0002 19.7525 46.0002 21.162ZM37.0406 28.4001C39.2571 28.4382 41.079 26.6287 41.1166 24.362C41.1542 22.1906 39.3698 20.3239 37.2473 20.2478C35.0308 20.1525 33.1337 22.0192 33.0962 24.2097C33.0774 26.5525 34.7679 28.362 37.0406 28.4001ZM9.18519 28.4001C11.4392 28.4001 13.2048 26.6478 13.2048 24.3811C13.2048 22.0763 11.4767 20.2668 9.24154 20.2668C7.00635 20.2478 5.18438 22.0763 5.18438 24.3239C5.18438 26.5525 6.98756 28.3811 9.18519 28.4001ZM24.6813 15.1811C25.5266 15.1811 26.3906 15.162 27.2358 15.1811C27.6678 15.2001 27.7805 15.0287 27.7618 14.6287C27.743 13.7716 27.7618 12.9144 27.743 12.0573C27.7242 10.4763 26.5596 9.16204 25.0194 9.00966C23.4792 8.85728 22.0705 9.92395 21.7699 11.4859C21.5633 12.5525 21.7324 13.6382 21.676 14.7239C21.6572 15.1049 21.8075 15.2001 22.1456 15.1811C23.0096 15.162 23.8549 15.1811 24.6813 15.1811Z" fill="#6AC17E"/>
</g>
<defs>
<clipPath id="clip0_441_409">
<rect width="46" height="30" fill="white"/>
</clipPath>
</defs>
</svg>
