<svg width="37" height="38" viewBox="0 0 37 38" fill="none" xmlns="http://www.w3.org/2000/svg">
<path d="M27.4549 37.5522C24.9923 37.5522 22.5094 37.5522 20.0468 37.5522C19.5583 37.5522 19.1106 37.5109 18.7035 37.2011C18.5611 37.0978 18.4186 37.1185 18.2761 37.2217C17.9098 37.4696 17.4824 37.5522 17.055 37.5522C12.0077 37.5522 6.98075 37.5522 1.93344 37.5522C0.651265 37.5522 0 36.8706 0 35.5693C0 30.4466 0 25.3447 0 20.222C0 18.9414 0.651265 18.2597 1.91309 18.2597C4.15181 18.2391 6.41089 18.2597 8.64961 18.2597C8.9956 18.2597 9.13806 18.1978 9.0363 17.8053C8.9956 17.6194 8.9956 17.4128 8.9956 17.2269C8.9956 12.1663 8.9956 7.10559 8.9956 2.06558C8.9956 0.64033 9.62651 0 11.0308 0C16.0171 0 21.0237 0 26.0099 0C27.3531 0 28.0044 0.660985 28.0044 2.02427C28.0044 7.10559 28.0044 12.1869 28.0044 17.2682C28.0044 17.4128 28.0044 17.5574 27.984 17.6814C27.9026 18.2597 27.9026 18.2597 28.4928 18.2597C30.6909 18.2597 32.8685 18.2597 35.0666 18.2597C36.1656 18.2597 36.8168 18.7968 36.9796 19.7676C37 19.9328 37 20.0981 37 20.2633C37 25.3653 37 30.4673 37 35.5693C37 36.9119 36.3487 37.5522 35.0258 37.5522C32.5225 37.5522 29.9785 37.5522 27.4549 37.5522ZM18.5 18.2597C21.0033 18.2597 23.527 18.2597 26.0303 18.2597C26.824 18.2597 27.0479 18.0532 27.0479 17.2476C27.0479 12.1663 27.0479 7.10559 27.0479 2.02427C27.0479 1.19804 26.8036 0.970822 26.0099 0.970822C21.0033 0.970822 16.0171 0.970822 11.0105 0.970822C10.1964 0.970822 10.0132 1.17738 10.0132 2.00361C10.0132 7.10559 10.0132 12.2076 10.0132 17.3096C10.0132 18.1151 10.1557 18.2804 10.9697 18.2804C13.473 18.2597 15.9763 18.2597 18.5 18.2597ZM9.52475 19.2719C7.0011 19.2719 4.47745 19.2719 1.9538 19.2719C1.18042 19.2719 0.976898 19.4784 0.976898 20.284C0.976898 25.3653 0.976898 30.4466 0.976898 35.528C0.976898 36.3129 1.22112 36.5608 2.01485 36.5608C7.02145 36.5608 12.0281 36.5608 17.0347 36.5608C17.8284 36.5608 18.0116 36.3542 18.0116 35.5693C18.0116 30.4673 18.0116 25.3447 18.0116 20.2427C18.0116 19.4371 17.8691 19.2925 17.055 19.2925C14.5314 19.2719 12.0281 19.2719 9.52475 19.2719ZM19.0088 27.8853C19.0088 30.4466 19.0088 33.008 19.0088 35.5693C19.0088 36.3542 19.2123 36.5608 19.9653 36.5608C24.9923 36.5608 30.0192 36.5608 35.0258 36.5608C35.7992 36.5608 36.0435 36.2922 36.0435 35.5073C36.0435 30.426 36.0435 25.3447 36.0435 20.2633C36.0435 19.4578 35.8399 19.2719 35.0462 19.2719C30.0192 19.2719 24.9719 19.2719 19.945 19.2719C19.1513 19.2719 19.0088 19.4164 19.0088 20.2427C19.0088 22.804 19.0088 25.3447 19.0088 27.8853Z" fill="#6AC17E"/>
<path d="M21.6129 12.5997C21.6129 12.8889 21.4908 13.0335 21.2873 13.0955C21.043 13.1781 20.8395 13.0748 20.7174 12.8476C20.5342 12.4964 20.3918 12.1453 20.2493 11.7735C20.1679 11.443 19.9847 11.3191 19.6591 11.3397C18.8654 11.3604 18.0513 11.3604 17.2372 11.3397C16.9726 11.3397 16.8302 11.4223 16.7488 11.6702C16.6267 12.042 16.4842 12.3932 16.3214 12.7237C16.1993 13.0128 15.9754 13.1987 15.6498 13.0748C15.3241 12.9302 15.3241 12.6617 15.4462 12.3725C16.2196 10.4722 17.0133 8.59249 17.7867 6.69216C17.9292 6.36167 18.1531 6.13445 18.5194 6.15511C18.8654 6.15511 19.0689 6.36167 19.2114 6.67151C19.9847 8.55118 20.7581 10.4309 21.5315 12.3105C21.5722 12.4138 21.6129 12.5378 21.6129 12.5997ZM18.5601 7.60102C18.5194 7.60102 18.4787 7.60102 18.438 7.60102C18.092 8.42725 17.7664 9.25348 17.4204 10.0797C17.339 10.2863 17.4 10.3895 17.6035 10.3895C18.1938 10.3895 18.8043 10.3895 19.3945 10.3895C19.5573 10.3895 19.6591 10.3069 19.5777 10.121C19.2521 9.27413 18.9061 8.42725 18.5601 7.60102Z" fill="#6AC17E"/>
<path d="M11.9062 14.521C11.9062 14.1492 11.9062 13.7981 11.9062 13.4263C11.9062 13.0131 12.0894 12.7446 12.3947 12.7859C12.761 12.8272 12.8628 13.0751 12.8628 13.4056C12.8628 13.922 12.8831 14.4177 12.8628 14.9341C12.8424 15.2646 12.9849 15.3679 13.3105 15.3679C13.8193 15.3472 14.3078 15.3679 14.8166 15.3679C15.1219 15.3679 15.3864 15.4712 15.3864 15.8223C15.4068 16.2148 15.1422 16.3387 14.8166 16.3387C14.0432 16.3387 13.2698 16.3387 12.4761 16.3387C12.1098 16.3387 11.9062 16.1322 11.9062 15.7604C11.9062 15.3472 11.9062 14.9341 11.9062 14.521Z" fill="#6AC17E"/>
<path d="M25.115 14.5622C25.115 14.934 25.115 15.3265 25.115 15.6983C25.115 16.0907 24.9318 16.3179 24.5451 16.3179C23.7717 16.3179 22.9984 16.3179 22.2046 16.3179C21.8993 16.3179 21.6348 16.194 21.6348 15.8428C21.6348 15.4504 21.879 15.3471 22.225 15.3471C22.7338 15.3471 23.2426 15.3265 23.7717 15.3471C24.0567 15.3471 24.1788 15.2438 24.1584 14.9547C24.1381 14.4383 24.1584 13.9219 24.1584 13.3848C24.1584 13.0543 24.2805 12.7651 24.6265 12.7651C24.9929 12.7651 25.115 13.013 25.115 13.3642C25.115 13.7773 25.115 14.1697 25.115 14.5622Z" fill="#6AC17E"/>
<path d="M13.6769 2.93359C14.0636 2.93359 14.4503 2.93359 14.8369 2.93359C15.1422 2.93359 15.3661 3.05753 15.3661 3.38802C15.3864 3.73917 15.1626 3.88376 14.8573 3.90442C14.3078 3.92507 13.7786 3.92507 13.2291 3.90442C12.9646 3.90442 12.8628 4.0077 12.8628 4.27622C12.8831 4.79262 12.8628 5.30901 12.8628 5.82541C12.8628 6.1559 12.7814 6.42442 12.3947 6.44508C12.0691 6.46574 11.9062 6.25918 11.9062 5.82541C11.9062 5.0818 11.9062 4.33819 11.9062 3.59458C11.9062 3.09884 12.0691 2.95425 12.5575 2.93359C12.9239 2.93359 13.3105 2.93359 13.6769 2.93359Z" fill="#6AC17E"/>
<path d="M25.1144 4.73031C25.1144 5.10211 25.1144 5.49457 25.1144 5.86638C25.1144 6.17621 24.9923 6.42408 24.6463 6.44474C24.3003 6.44474 24.1579 6.21753 24.1579 5.88703C24.1579 5.37064 24.1375 4.8749 24.1579 4.3585C24.1782 4.00735 24.0764 3.88342 23.7101 3.88342C23.2217 3.90408 22.7332 3.90408 22.2448 3.88342C21.8174 3.88342 21.6138 3.69752 21.6342 3.36703C21.6546 2.97457 21.9395 2.9126 22.2448 2.9126C22.9774 2.9126 23.7101 2.9126 24.4428 2.9126C24.9312 2.9126 25.0737 3.07784 25.094 3.57358C25.1144 3.96604 25.1144 4.3585 25.1144 4.73031Z" fill="#6AC17E"/>
<path d="M9.50475 34.5985C7.81553 34.5985 6.14666 34.5985 4.45744 34.5985C3.46019 34.5985 2.9921 33.8136 3.43984 32.9047C5.10871 29.4965 6.79793 26.0883 8.48715 22.6595C8.71102 22.2257 8.99595 21.9365 9.50475 21.9365C10.0135 21.9365 10.3188 22.2257 10.5223 22.6595C12.1912 26.0677 13.8804 29.4552 15.5493 32.8634C16.0174 33.8343 15.5493 34.5985 14.491 34.5985C12.8425 34.5985 11.1736 34.5985 9.50475 34.5985ZM9.4844 33.6277C10.0746 33.6277 10.6445 33.607 11.2347 33.6277C11.54 33.6484 11.6417 33.5244 11.7028 33.2352C11.9063 32.2851 12.3947 31.5002 13.1478 30.9011C13.3309 30.7565 13.3716 30.6326 13.2699 30.4054C12.4354 28.7529 11.6214 27.0798 10.8073 25.4274C10.7055 25.2001 10.5631 25.1588 10.3392 25.2208C9.76932 25.3654 9.21982 25.3654 8.64996 25.2208C8.40574 25.1588 8.28363 25.2208 8.16151 25.448C7.36778 27.1005 6.5537 28.7529 5.73962 30.3847C5.63786 30.5913 5.63786 30.7152 5.84138 30.8805C6.61476 31.5002 7.12356 32.2851 7.30673 33.2559C7.36778 33.5451 7.51025 33.607 7.75447 33.607C8.34468 33.607 8.91454 33.6277 9.4844 33.6277ZM13.6769 33.607C13.9211 33.607 14.1654 33.607 14.4299 33.607C14.6945 33.607 14.7963 33.5038 14.6742 33.2559C14.4503 32.8015 14.2061 32.3264 14.0025 31.8513C13.8804 31.6034 13.7583 31.6447 13.5955 31.7893C13.1681 32.2025 12.8628 32.6982 12.7 33.2766C12.6186 33.5451 12.7407 33.607 12.9646 33.607C13.1885 33.607 13.4327 33.6277 13.6769 33.607ZM5.27152 33.607C5.55645 33.607 5.82103 33.607 6.10596 33.607C6.32983 33.607 6.39089 33.5244 6.32983 33.2972C6.18737 32.6982 5.84138 32.2025 5.39364 31.7893C5.19012 31.6034 5.08836 31.6654 5.00695 31.8926C4.90519 32.1405 4.78308 32.3677 4.66096 32.6156C4.17251 33.6277 4.17251 33.6277 5.27152 33.607ZM9.50475 24.3119C9.60651 24.3119 9.70827 24.3119 9.78968 24.3119C10.1967 24.2913 10.2171 24.2293 10.0339 23.8575C9.91179 23.6096 9.78968 23.3824 9.68792 23.1346C9.58616 22.928 9.46404 22.8867 9.34193 23.1139C9.26052 23.2791 9.15876 23.4651 9.07735 23.6303C8.75172 24.2913 8.77207 24.3119 9.50475 24.3119Z" fill="#6AC17E"/>
<path d="M34.1109 27.9267C34.1109 31.6447 31.1599 34.5985 27.4558 34.5985C23.8331 34.5985 20.8821 31.5621 20.9024 27.8853C20.9024 24.2086 23.8942 21.1929 27.5169 21.1929C31.1599 21.1929 34.1109 24.2086 34.1109 27.9267ZM33.1544 27.8853C33.1544 24.725 30.6307 22.1637 27.5169 22.1637C24.4234 22.1637 21.8793 24.7663 21.8793 27.906C21.8793 31.0457 24.4233 33.607 27.5372 33.607C30.6511 33.607 33.1544 31.0663 33.1544 27.8853Z" fill="#6AC17E"/>
<path d="M27.5557 23.2168C27.8 23.2581 28.1052 23.2788 28.3902 23.3201C28.6751 23.382 28.8786 23.5266 28.8583 23.8571C28.8176 24.1876 28.5937 24.2909 28.2884 24.2702C27.7389 24.2083 27.1894 24.2083 26.6399 24.3116C26.3753 24.3529 26.1718 24.2083 26.1107 23.9398C26.0293 23.6712 26.1718 23.4647 26.4364 23.382C26.7824 23.2581 27.1487 23.2581 27.5557 23.2168Z" fill="#6AC17E"/>
<path d="M25.4003 24.6423C25.4003 24.8695 25.2782 24.9934 25.1561 25.1174C24.8101 25.4479 24.5048 25.8197 24.3013 26.2328C24.1588 26.522 23.9146 26.7079 23.589 26.522C23.2837 26.3361 23.2837 26.0469 23.4262 25.7577C23.7314 25.2 24.0978 24.6836 24.5862 24.2911C24.749 24.1672 24.9322 24.1052 25.1357 24.2292C25.3189 24.3325 25.38 24.477 25.4003 24.6423Z" fill="#6AC17E"/>
<path d="M32.0945 28.1953C32.0538 28.6704 31.952 29.2487 31.7078 29.7651C31.5653 30.0543 31.3822 30.2815 31.0362 30.1369C30.7105 29.9923 30.6698 29.7032 30.8123 29.3933C30.9955 28.9595 31.1176 28.5051 31.1379 28.0507C31.1583 27.6995 31.26 27.431 31.6264 27.3897C31.9317 27.3691 32.1148 27.6582 32.0945 28.1953Z" fill="#6AC17E"/>
<path d="M26.5805 32.4505C25.8682 32.2853 25.1762 32.0167 24.6267 31.459C24.4639 31.2938 24.4639 31.0666 24.6064 30.8807C24.7488 30.6948 24.9524 30.5915 25.1559 30.7361C25.685 31.0666 26.2345 31.3557 26.8248 31.5417C27.0283 31.6036 27.1504 31.8102 27.0893 32.058C27.0079 32.3059 26.8451 32.4299 26.5805 32.4505Z" fill="#6AC17E"/>
<path d="M31.6681 26.0677C31.6477 26.2536 31.5663 26.4188 31.3628 26.5015C31.1593 26.5841 30.9558 26.5221 30.854 26.3569C30.5284 25.8405 30.1417 25.3654 29.6939 24.9316C29.5311 24.787 29.5515 24.5805 29.6532 24.3946C29.7753 24.2087 29.9382 24.1467 30.162 24.188C30.5894 24.25 31.6681 25.5926 31.6681 26.0677Z" fill="#6AC17E"/>
<path d="M22.916 28.0506C22.9364 27.7615 23.0178 27.4929 23.3638 27.4516C23.7097 27.431 23.8522 27.6375 23.8929 27.968C23.954 28.4844 24.0354 29.0008 24.2389 29.4759C24.361 29.7444 24.3 30.0336 23.9947 30.1369C23.6894 30.2608 23.4859 30.1162 23.3434 29.827C23.0788 29.29 22.9771 28.691 22.916 28.0506Z" fill="#6AC17E"/>
<path d="M30.5487 31.1487C30.5487 31.3346 30.4673 31.4792 30.3249 31.5825C29.8161 31.975 29.2666 32.2641 28.656 32.4087C28.3507 32.4914 28.1065 32.4087 28.0047 32.1196C27.903 31.7891 28.0658 31.5825 28.3914 31.4792C28.9002 31.3346 29.348 31.0868 29.7754 30.7976C30.1213 30.5497 30.5487 30.7563 30.5487 31.1487Z" fill="#6AC17E"/>
</svg>
