<svg width="38" height="38" viewBox="0 0 38 38" fill="none" xmlns="http://www.w3.org/2000/svg">
<g clip-path="url(#clip0_424_670)">
<path d="M10.7346 0.419434C13.9232 0.419434 17.1119 0.419434 20.32 0.419434C20.8255 0.419434 21.0783 0.652872 21.0394 1.08084C21.0199 1.37264 20.8644 1.56717 20.5727 1.60608C20.3394 1.64499 20.1255 1.66444 19.8922 1.66444C16.3147 1.66444 12.7372 1.66444 9.15971 1.66444C8.63474 1.66444 8.6153 1.66444 8.6153 2.18968C8.6153 3.51249 8.6153 4.85476 8.6153 6.17758C8.6153 6.44993 8.69307 6.5861 8.98472 6.62501C12.0762 7.01407 14.6232 9.36791 15.2648 12.461C15.7314 14.6981 15.2259 16.7407 13.9038 18.5887C13.826 18.686 13.7482 18.7833 13.6705 18.9C13.5733 19.0556 13.5344 19.2307 13.6121 19.3669C13.7094 19.5225 13.8649 19.3669 13.9816 19.328C14.8176 19.0751 15.6731 18.9778 16.548 18.9C17.423 18.8222 18.3951 19.6003 18.5507 20.4757C18.7257 21.4289 18.2201 22.3432 17.3063 22.6155C17.0341 22.6934 16.723 22.6934 16.4314 22.7517C15.1481 22.9657 14.0593 23.6271 13.1066 24.4636C12.6011 24.911 12.3484 25.5335 12.3289 26.2338C12.3289 26.7785 12.3289 27.3038 12.3289 27.8485C12.3289 28.1208 12.4067 28.2375 12.6983 28.2375C13.476 28.2375 13.5733 28.3737 13.5733 29.1324C13.5733 29.9105 13.5733 30.6886 13.5733 31.4668C13.5733 31.992 13.3983 32.1671 12.8733 32.2254C12.7567 32.2254 12.64 32.2254 12.5233 32.2254C9.74299 32.2254 6.96265 32.2254 4.1823 32.2254C4.02676 32.2254 3.85177 32.2254 3.69623 32.1865C3.38514 32.1282 3.19071 31.9531 3.19071 31.6029C3.19071 30.6497 3.19071 29.6771 3.19071 28.7239C3.19071 28.3153 3.40458 28.1403 3.87121 28.1208C4.43506 28.1208 4.41562 28.1208 4.43506 27.5567C4.43506 26.798 4.1823 26.1171 3.65734 25.5724C2.74352 24.6387 2.31577 23.5104 2.35466 22.207C2.3741 21.2927 2.35466 20.359 2.35466 19.4447C2.35466 19.1918 2.27689 18.9972 2.12134 18.7833C-1.49505 14.4063 0.740893 7.90892 6.35992 6.66391C6.61267 6.60555 6.86543 6.56665 7.11819 6.54719C7.31262 6.54719 7.39039 6.44993 7.39039 6.2554C7.39039 4.81586 7.39039 3.39577 7.39039 1.95624C7.39039 1.66444 7.17652 1.64499 6.96265 1.64499C5.89328 1.64499 4.84336 1.64499 3.774 1.64499C2.89906 1.64499 2.04357 1.64499 1.16864 1.64499C0.624235 1.64499 0.390919 1.45045 0.371476 1.04194C0.371476 0.691778 0.585349 0.45834 0.935323 0.419434C1.05198 0.419434 1.18808 0.419434 1.32418 0.419434C4.47395 0.419434 7.60427 0.419434 10.754 0.419434H10.7346ZM3.65734 19.6587C3.65734 20.6508 3.65734 21.6429 3.65734 22.6544C3.65734 23.3742 3.89066 24.0356 4.39617 24.522C5.32944 25.4363 5.77663 26.5256 5.7183 27.829C5.7183 28.0624 5.79607 28.1792 6.04883 28.1792C7.62371 28.1792 9.21803 28.1792 10.7929 28.1792C11.0651 28.1792 11.1429 28.0624 11.1429 27.8095C11.1429 27.4205 11.1429 27.012 11.1429 26.6229C11.1623 25.0861 11.7651 23.8605 13.0677 22.9852C14.2149 22.2265 15.4009 21.5651 16.8202 21.4678C17.2674 21.4289 17.423 21.2344 17.423 20.8842C17.423 20.4951 17.1119 20.145 16.6841 20.1644C15.5759 20.2228 14.4676 20.2812 13.5149 20.9815C13.1455 21.2538 12.6594 21.0398 12.5817 20.573C12.5428 20.359 12.5428 20.145 12.5428 19.931C12.5428 18.7638 12.5428 17.6161 12.5428 16.4489C12.5428 16.0209 12.29 15.7486 11.9401 15.7486C11.5901 15.7486 11.2984 16.0404 11.279 16.4489C11.279 16.7601 11.279 17.0714 11.279 17.3632C11.279 17.8301 11.0651 18.0829 10.6957 18.1024C10.3068 18.1024 10.0735 17.869 10.0346 17.4215C10.0152 17.1103 10.0346 16.7796 10.0346 16.4683C10.0346 16.0404 9.74299 15.7486 9.39302 15.7486C9.04305 15.7486 8.77085 16.0598 8.7514 16.4878C8.7514 16.799 8.7514 17.1103 8.7514 17.4021C8.7514 17.8301 8.53753 18.1024 8.16811 18.1219C7.77925 18.1413 7.52649 17.8884 7.50705 17.441C7.48761 17.1103 7.50705 16.7796 7.50705 16.4489C7.50705 16.0598 7.23485 15.768 6.88488 15.7486C6.55435 15.7486 6.2627 16.0404 6.24326 16.4294C6.24326 16.7407 6.24326 17.0519 6.24326 17.3437C6.24326 17.8301 6.00994 18.1024 5.62108 18.1024C5.21278 18.1024 4.97946 17.8301 4.97946 17.3243C4.97946 17.0519 4.97946 16.7796 4.97946 16.5267C4.97946 16.0598 4.7267 15.768 4.35729 15.7486C3.98787 15.7486 3.71567 16.0598 3.71567 16.5267C3.71567 17.5772 3.71567 18.6276 3.71567 19.6587H3.65734ZM13.6316 16.5267C14.701 14.3868 14.351 11.1382 11.7262 9.09556C9.19859 7.13079 5.62108 7.30587 3.34625 9.50408C1.1492 11.6245 0.993652 14.9704 2.17967 16.8768C2.25745 16.799 2.21856 16.7018 2.21856 16.624C2.04357 14.9704 3.9101 13.8811 5.19334 14.8732C5.30999 14.9704 5.40721 14.951 5.54331 14.8732C6.2627 14.3868 7.00153 14.3868 7.72092 14.8732C7.85703 14.9704 7.95424 14.9704 8.09034 14.8732C8.79029 14.3868 9.52912 14.3868 10.2291 14.8732C10.4041 14.9899 10.5013 14.9704 10.6568 14.8732C11.0262 14.6203 11.4345 14.4841 11.8817 14.5425C12.9316 14.6786 13.5344 15.379 13.6121 16.5656L13.6316 16.5267ZM8.3431 30.9999H11.2984C12.3872 30.9999 12.3872 30.9999 12.3678 29.9105C12.3678 29.5992 12.2511 29.4825 11.9401 29.4825C10.929 29.4825 9.91798 29.4825 8.92639 29.4825C7.58482 29.4825 6.24326 29.4825 4.90169 29.4825C4.53227 29.4825 4.39617 29.5992 4.43506 29.9689C4.4545 30.1828 4.4545 30.3968 4.43506 30.6108C4.39617 30.9221 4.53227 30.9999 4.84336 30.9999C6.00994 30.9999 7.19596 30.9999 8.36254 30.9999H8.3431Z" fill="#6AC17E"/>
<path d="M30.0608 0.419434C32.2578 0.419434 34.4549 0.419434 36.652 0.419434C37.1575 0.419434 37.3908 0.633419 37.3713 1.06139C37.3713 1.37264 37.2158 1.56717 36.9047 1.62553C36.7103 1.66444 36.4964 1.66444 36.302 1.68389C34.4938 1.68389 32.705 1.68389 30.8968 1.68389C30.3913 1.68389 30.3719 1.68389 30.3719 2.20913C30.3719 5.22438 30.3719 8.23962 30.3719 11.2549C30.3719 11.6245 30.4691 11.7607 30.8579 11.7996C34.1049 12.1692 36.8853 14.951 37.313 18.1802C37.6047 20.4368 37.0603 22.4599 35.5437 24.1913C35.4076 24.3469 35.3882 24.522 35.3882 24.7165C35.3882 25.7086 35.3882 26.7007 35.3882 27.7123C35.3882 28.9184 34.9993 29.9689 34.1438 30.8248C33.5022 31.4668 33.2689 32.2449 33.3272 33.1203C33.3272 33.3343 33.4244 33.4121 33.6188 33.4121C33.7744 33.4121 33.9299 33.4121 34.066 33.451C34.3577 33.5093 34.5521 33.6844 34.5521 34.0151C34.5521 34.9683 34.5521 35.9021 34.5521 36.8553C34.5521 37.2444 34.3382 37.4389 33.9494 37.4389C30.8968 37.4389 27.8443 37.4389 24.7917 37.4389C24.3834 37.4389 24.1696 37.2249 24.1696 36.8164C24.1696 35.8632 24.1696 34.9294 24.1696 33.9762C24.1696 33.5288 24.4029 33.3343 24.8889 33.3148C25.2389 33.3148 25.4139 33.1397 25.4139 32.7896C25.4139 32.4005 25.4139 32.0309 25.4139 31.6418C25.4139 30.7081 25.0445 29.9494 24.3251 29.3853C23.2557 28.5293 22.1086 27.9263 20.6893 27.8485C19.6199 27.7901 18.9005 26.5256 19.2505 25.4557C19.4838 24.7554 20.3393 23.9773 21.4087 24.094C22.2641 24.1913 23.1002 24.2691 23.9168 24.5414C24.1112 24.5998 24.1696 24.5414 24.1696 24.3663C24.1696 24.1913 24.0918 24.0551 23.9751 23.9189C22.7308 22.3627 22.1864 20.573 22.3225 18.5887C22.5363 15.34 25.1028 12.461 28.2915 11.8385C28.8488 11.7347 29.1275 11.3975 29.1275 10.8269C29.1275 7.94782 29.1275 5.0493 29.1275 2.17022C29.1275 1.66444 29.1275 1.66444 28.6026 1.66444C27.0082 1.66444 25.4139 1.66444 23.8196 1.66444C23.6446 1.66444 23.4891 1.66444 23.3141 1.64499C22.8863 1.58663 22.6724 1.35319 22.6919 1.00303C22.6919 0.633419 22.9641 0.419434 23.3918 0.419434C25.0445 0.419434 26.7166 0.419434 28.3692 0.419434C28.9331 0.419434 29.4969 0.419434 30.0608 0.419434ZM29.3025 33.3926C30.0997 33.3926 30.8774 33.3926 31.6745 33.3926C31.9467 33.3926 32.044 33.3148 32.0245 33.0425C31.9856 31.7196 32.4717 30.6108 33.4244 29.6771C33.8327 29.2685 34.0855 28.7239 34.0855 28.1597C34.0855 26.0004 34.1827 23.8411 34.2605 21.7012C34.2605 21.2733 34.0272 21.0204 33.6577 21.0204C33.2883 21.0204 33.0161 21.2733 32.9967 21.6818C32.9967 21.993 32.9967 22.3237 32.9967 22.635C32.9967 23.1019 32.7634 23.3548 32.3939 23.3548C32.0051 23.3548 31.7718 23.1019 31.7523 22.6544C31.7523 22.3432 31.7523 22.0125 31.7523 21.7012C31.7523 21.2733 31.519 21.0204 31.1496 21.0204C30.7607 21.0204 30.508 21.2733 30.4885 21.7012C30.4885 22.0125 30.4885 22.3432 30.4885 22.6544C30.4885 23.0824 30.2552 23.3353 29.8858 23.3548C29.5164 23.3548 29.2442 23.1019 29.2247 22.6544C29.2247 22.3432 29.2247 22.0319 29.2247 21.7401C29.2247 21.2733 28.9914 21.0009 28.5831 21.0204C28.1943 21.0204 27.9804 21.2733 27.9609 21.7401C27.9609 22.0514 27.9609 22.3821 27.9609 22.6934C27.9415 23.1213 27.6887 23.3742 27.3193 23.3548C26.9499 23.3548 26.7166 23.0824 26.6971 22.6739C26.6971 22.4016 26.6971 22.1292 26.6971 21.8763C26.6971 21.2927 26.4833 21.0204 26.0555 21.0204C25.6278 21.0204 25.4334 21.2733 25.4334 21.8374C25.4334 23.0824 25.4334 24.308 25.4334 25.553C25.4334 25.8642 25.375 26.1366 25.0834 26.3117C24.7723 26.4673 24.539 26.3506 24.2668 26.1755C23.2752 25.5335 22.1475 25.3974 21.0003 25.3974C20.6504 25.3974 20.3782 25.7281 20.3782 26.0588C20.3782 26.4089 20.5337 26.6035 20.9615 26.6618C22.5169 26.8369 23.8196 27.5567 25.0639 28.4321C25.8417 28.9962 26.3083 29.7743 26.5222 30.6886C26.6971 31.4278 26.6583 32.1865 26.6388 32.9452C26.6388 33.2759 26.736 33.3926 27.0666 33.3926C27.8248 33.3732 28.5637 33.3926 29.3219 33.3926H29.3025ZM35.3882 22.0903C36.4575 20.3979 36.5742 16.9936 34.2021 14.7564C31.869 12.5582 28.3304 12.3053 25.8222 14.2312C23.3335 16.1376 22.7697 19.4641 23.9557 21.7791C23.9557 21.7596 23.9751 21.7401 23.9946 21.7207C24.0918 20.0088 25.4917 19.2307 26.9499 20.0866C27.1054 20.1839 27.1832 20.145 27.3193 20.0672C28.0387 19.5808 28.7581 19.5808 29.458 20.0672C29.6136 20.1839 29.7108 20.145 29.8664 20.0672C30.5274 19.6197 31.2274 19.6003 31.9079 20.0283C32.1217 20.1644 32.2773 20.145 32.4912 20.0283C33.6188 19.3474 34.9993 19.931 35.3104 21.2149C35.3882 21.5067 35.3298 21.818 35.3882 22.1292V22.0903ZM29.3803 36.1744C30.5663 36.1744 31.7523 36.1744 32.9383 36.1744C33.23 36.1744 33.3661 36.0772 33.3466 35.7854C33.3466 35.5714 33.3272 35.3574 33.3466 35.1434C33.3855 34.7738 33.2494 34.6765 32.88 34.6765C30.7413 34.6765 28.6026 34.6765 26.4444 34.6765C25.3945 34.6765 25.4139 34.6765 25.3945 35.727C25.3945 36.0772 25.5111 36.1939 25.8611 36.1939C27.0277 36.1939 28.2137 36.1939 29.3803 36.1939V36.1744Z" fill="#6AC17E"/>
<path d="M8.86774 8.8623C10.7343 8.8623 12.4452 10.652 12.3869 12.539C12.3869 12.928 12.173 13.1615 11.8425 13.2004C11.4925 13.2393 11.2592 13.0447 11.1815 12.6557C11.1426 12.4417 11.1426 12.2277 11.0842 12.0137C10.8509 11.0022 9.99543 10.2435 8.96495 10.1268C8.82885 10.1268 8.7122 10.0879 8.59554 10.0684C8.22612 9.99059 8.03169 9.75715 8.05113 9.40699C8.07058 9.07629 8.28445 8.88176 8.67331 8.8623C8.73164 8.8623 8.80941 8.8623 8.86774 8.8623Z" fill="#6AC17E"/>
</g>
<defs>
<clipPath id="clip0_424_670">
<rect width="37" height="37" fill="white" transform="translate(0.371094 0.419434)"/>
</clipPath>
</defs>
</svg>
