<svg width="33" height="33" viewBox="0 0 33 33" fill="none" xmlns="http://www.w3.org/2000/svg">
<g clip-path="url(#clip0_441_412)">
<path d="M6.03326 11.0299C5.98755 10.3757 6.26179 9.81184 6.74171 9.36071C8.72994 7.37575 10.7182 5.41334 12.7292 3.45093C13.9633 2.25545 15.6316 2.23289 16.8428 3.40582C18.4882 4.98477 20.1108 6.58627 21.7105 8.18778C22.579 9.09003 22.6247 10.3306 21.8477 11.278C21.1164 12.1803 19.8137 12.4058 18.831 11.7968C18.6025 11.6615 18.3968 11.481 18.214 11.278C17.2542 10.3532 16.2943 9.38327 15.3345 8.4359C14.8317 7.96221 14.8317 7.96221 14.3518 8.4359C12.9578 9.81184 11.5637 11.1652 10.1697 12.5412C9.5298 13.1727 8.77564 13.5111 7.83866 13.3081C6.74171 13.06 6.03326 12.1803 6.03326 11.0299ZM14.7632 4.51109C14.4661 4.48853 14.2604 4.69154 14.0547 4.89454C12.1579 6.76672 10.2382 8.66146 8.34143 10.5336C8.25002 10.6239 8.15861 10.7141 8.09005 10.8043C7.97578 10.9848 7.95293 11.1878 8.13575 11.3457C8.29572 11.481 8.47855 11.4359 8.61567 11.3006C8.72994 11.1878 8.8442 11.075 8.95847 10.9622C10.5582 9.38327 12.1579 7.80432 13.7805 6.20281C14.6032 5.41334 15.0146 5.41334 15.8601 6.22537C17.0942 7.46597 18.3511 8.70657 19.6081 9.92462C19.8137 10.1276 20.0423 10.3081 20.2936 10.0374C20.5222 9.81184 20.3622 9.58627 20.1794 9.38327C18.6254 7.87199 17.0942 6.36071 15.5402 4.84943C15.3345 4.64642 15.106 4.48853 14.7632 4.51109Z" fill="#6AC17E"/>
<path d="M23.0358 23.707C23.0586 24.4513 22.7844 25.1055 22.2588 25.6243C20.6362 27.2483 19.0136 28.8498 17.3682 30.4513C16.4312 31.3536 14.9915 31.331 14.0773 30.4513C13.1632 29.5491 13.1404 28.128 14.0773 27.1581C15.0829 26.1205 16.1113 25.128 17.1397 24.1356C17.4825 23.8198 17.5282 23.6393 17.1625 23.2784C15.6999 21.8574 14.2602 20.4363 12.8204 18.9701C11.4949 17.6168 12.0663 15.5416 13.8945 15.0904C14.7172 14.8874 15.4714 15.0679 16.0656 15.6544C18.1452 17.6844 20.2249 19.7371 22.2816 21.7897C22.8073 22.3085 23.0815 22.9626 23.0358 23.707ZM21.0933 23.707C21.0704 23.3912 20.9105 23.1431 20.7048 22.9175C18.808 21.0453 16.8883 19.1506 14.9915 17.2784C14.8772 17.2107 14.7858 17.098 14.6944 17.0529C14.4887 16.9401 14.3059 16.9626 14.1459 17.1205C13.9859 17.301 14.0773 17.4589 14.1916 17.5942C14.3059 17.7295 14.443 17.8423 14.5573 17.9777C16.157 19.5566 17.7339 21.113 19.3336 22.692C20.1563 23.504 20.1563 23.91 19.3107 24.722C18.0767 25.9401 16.8654 27.1356 15.6314 28.3536C15.4257 28.5566 15.2657 28.7822 15.4942 29.0529C15.7228 29.301 15.9513 29.1205 16.1341 28.9401C17.6653 27.4288 19.2193 25.895 20.7505 24.3837C20.9562 24.1807 21.0704 23.9777 21.0933 23.707Z" fill="#6AC17E"/>
<path d="M2.30787 32.9998C1.37089 32.9547 0.662438 32.5487 0.251081 31.7141C-0.160276 30.857 -0.0688636 30.0449 0.502466 29.278C0.639585 29.1201 0.776704 28.9622 0.936677 28.8043C4.06756 25.7141 7.19845 22.6239 10.3293 19.5337C11.1749 18.6991 11.5634 18.6991 12.3633 19.5337C12.866 20.0525 13.3917 20.5712 13.8716 21.1126C14.3515 21.6314 14.3515 22.1051 13.8259 22.6013C10.535 25.8494 7.24416 29.1201 3.93044 32.3682C3.51909 32.7968 2.94776 32.9998 2.30787 32.9998ZM2.39928 31.0149C2.65067 30.9923 2.78778 30.7893 2.94776 30.6314C5.59873 28.0149 8.2497 25.3983 10.9007 22.7818C11.1521 22.5562 11.3806 22.3081 11.632 22.0825C11.8148 21.9021 11.7919 21.7667 11.632 21.5863C11.3577 21.2479 11.1749 21.4284 10.9464 21.654C8.08972 24.4961 5.21022 27.3156 2.35357 30.1577C2.23931 30.2705 2.10219 30.3833 2.05648 30.5186C1.94222 30.8119 2.03363 31.0149 2.39928 31.0149Z" fill="#6AC17E"/>
<path d="M27.1719 19.9626C26.1435 19.9626 25.0923 19.9626 24.0639 19.9626C22.1442 19.9626 21.0016 18.8799 20.933 16.9626C20.9102 16.2183 20.933 15.4739 20.933 14.7521C20.933 14.2333 21.1387 13.8499 21.5729 13.5566C22.3728 13.0604 23.1498 12.519 23.9268 12.0002C24.3153 11.7521 24.7038 11.6393 25.138 11.8649C25.5722 12.0905 25.6636 12.4965 25.6636 12.9476C25.6636 13.5792 25.6865 14.2108 25.6636 14.8423C25.6408 15.2258 25.8007 15.3611 26.1892 15.3611C27.629 15.3386 29.0916 15.3611 30.5313 15.3611C31.9254 15.3611 32.9538 16.3311 32.9538 17.6393C32.9766 18.9476 31.9254 19.9626 30.5085 19.9626C29.4344 19.9626 28.3146 19.9626 27.1719 19.9626ZM27.1262 18.0002C28.2232 18.0002 29.2973 18.0002 30.3942 18.0002C30.6685 18.0002 30.9884 18.0002 30.9884 17.6393C30.9884 17.2559 30.6456 17.2784 30.3942 17.2784C28.7488 17.2784 27.1034 17.2784 25.4579 17.2784C25.1837 17.2784 24.8866 17.2559 24.6124 17.2108C24.0639 17.1205 23.7668 16.8047 23.7211 16.2408C23.6982 15.8799 23.7211 15.4965 23.6982 15.1356C23.6982 14.9777 23.7897 14.7296 23.6068 14.6393C23.4012 14.5491 23.264 14.7747 23.1041 14.8649C22.8984 14.9777 22.8984 15.1807 22.8984 15.3837C22.8984 15.9025 22.8984 16.3987 22.8984 16.9175C22.9212 17.6844 23.2183 17.9777 23.9725 17.9777C25.0466 18.0228 26.075 18.0002 27.1262 18.0002Z" fill="#6AC17E"/>
<path d="M21.8936 4.53383C21.8936 2.03008 23.9503 0 26.5099 0C29.0695 0 31.1948 2.03008 31.1491 4.55639C31.1262 7.08271 29.2066 9.15789 26.4642 9.11278C23.7447 9.09023 21.9393 6.99248 21.8936 4.53383ZM26.5556 1.93985C25.0244 1.93985 23.8818 3.04511 23.8818 4.51128C23.8818 6.02256 25.0244 7.19549 26.5328 7.19549C27.9725 7.19549 29.1837 6 29.1837 4.55639C29.1837 3.09023 28.0411 1.93985 26.5556 1.93985Z" fill="#6AC17E"/>
</g>
<defs>
<clipPath id="clip0_441_412">
<rect width="33" height="33" fill="white"/>
</clipPath>
</defs>
</svg>
