<svg width="36" height="28" viewBox="0 0 36 28" fill="none" xmlns="http://www.w3.org/2000/svg">
<g clip-path="url(#clip0_424_628)">
<path d="M0.801205 15.7326C0.940585 15.5134 1.14191 15.4351 1.40519 15.4351C2.16404 15.4194 2.87643 15.576 3.55784 15.9049C4.36315 16.2964 5.21492 16.453 6.11315 16.3434C6.32997 16.3121 6.43837 16.2338 6.46935 16.0145C6.51581 15.764 6.59324 15.529 6.67067 15.2785C6.79457 14.9182 7.08882 14.7616 7.38306 14.8713C7.6928 14.9809 7.83218 15.2628 7.72377 15.623C7.50696 16.3434 7.35209 17.0638 7.38306 17.8312C7.41404 18.4577 7.61536 19.0215 7.97156 19.5227C8.09545 19.6949 8.21935 19.7576 8.45165 19.7106C9.65961 19.4444 10.8521 19.46 11.9826 20.0082C13.3455 20.6659 14.6773 20.6503 16.0556 20.0082C17.5269 19.3347 19.0291 19.3347 20.4848 20.0082C21.8786 20.6503 23.2105 20.6189 24.5888 19.9925C26.0291 19.3347 27.5003 19.366 28.9561 19.9925C29.2968 20.1491 29.6375 20.2901 30.0092 20.384C30.2105 20.431 30.3809 20.4153 30.5667 20.3057C31.7282 19.6323 32.3012 18.2541 31.945 16.9229C31.6043 15.623 30.4428 14.699 29.1109 14.6833C28.445 14.6833 27.7946 14.6833 27.1286 14.6833C26.695 14.6833 26.4472 14.4797 26.4317 14.1352C26.4317 13.8063 26.6795 13.5557 27.0977 13.5557C28.0114 13.5557 28.9406 13.4618 29.8543 13.6497C31.0778 13.9003 31.9915 14.5894 32.6109 15.67C32.7503 15.9049 32.8587 15.9362 33.091 15.8266C33.7415 15.5134 34.4229 15.3724 35.1353 15.4037C35.5379 15.4037 35.7393 15.5917 35.7547 15.9362C35.7547 16.2651 35.5689 16.453 35.1972 16.4844C34.5623 16.5314 33.9273 16.6253 33.3543 16.9229C33.2149 16.9855 33.091 17.0325 33.122 17.2361C33.2459 18.3011 32.9826 19.2564 32.3632 20.1334C32.3477 20.1648 32.3322 20.1961 32.2857 20.2901C32.5645 20.1804 32.7968 20.0865 33.0136 19.9768C33.695 19.6636 34.4074 19.4913 35.1663 19.5227C35.5379 19.5383 35.7393 19.7106 35.7547 20.0395C35.7547 20.3684 35.5844 20.572 35.1972 20.6033C34.4539 20.6503 33.7724 20.8539 33.091 21.1514C31.6663 21.7622 30.2105 21.7779 28.7857 21.1201C27.7791 20.6503 26.757 20.4937 25.6729 20.7442C25.2702 20.8382 24.914 21.0418 24.5269 21.1984C23.1331 21.7466 21.7393 21.7779 20.3764 21.1514C19.3388 20.6816 18.3012 20.4937 17.1862 20.7442C16.799 20.8225 16.4583 21.0105 16.1021 21.1671C14.7238 21.7466 13.33 21.7466 11.9516 21.1984C11.3322 20.9478 10.7437 20.6816 10.0623 20.6503C9.36536 20.6189 8.69943 20.6816 8.06448 20.9792C7.16625 21.4177 6.23705 21.6369 5.23041 21.5899C4.56448 21.5586 3.94501 21.449 3.35651 21.1514C2.70607 20.8382 2.04014 20.6503 1.32775 20.6189C1.07997 20.6189 0.894125 20.5093 0.754745 20.3057V19.8202C0.894125 19.601 1.09545 19.5227 1.35873 19.5227C2.25696 19.4757 3.04678 19.7889 3.85209 20.1334C4.78129 20.5563 5.74147 20.5406 6.71713 20.3057C6.96492 20.2431 7.04236 20.1648 6.872 19.9142C6.43837 19.2877 6.25253 18.583 6.20607 17.8469C6.19059 17.518 6.09766 17.4084 5.77244 17.424C4.93616 17.4867 4.11536 17.3771 3.34103 17.0012C2.69059 16.688 2.02466 16.5 1.31227 16.4687C1.06448 16.4687 0.878638 16.3591 0.739258 16.1555V15.67L0.801205 15.7326Z" fill="#6AC17E"/>
<path d="M17.015 6.44566C17.0305 6.9938 16.9375 7.52629 16.7982 8.04311C16.6897 8.46596 16.4265 8.6539 16.0858 8.55993C15.7605 8.48162 15.6057 8.1684 15.7296 7.7612C16.349 5.58429 15.3424 3.73626 14.026 2.78093C11.3623 0.870253 7.44417 2.57733 7.04151 5.85053C6.80921 7.83951 7.72293 9.59357 9.48842 10.5332C10.0614 10.8308 10.1389 11.0657 9.81364 11.6295C9.47293 12.256 9.10125 12.8668 8.74505 13.4776C8.51275 13.8691 8.20302 13.9787 7.90877 13.8064C7.63001 13.6342 7.58355 13.3053 7.80036 12.9294C8.04815 12.4909 8.29594 12.0524 8.55921 11.6295C8.66762 11.4573 8.66762 11.332 8.46629 11.2537C8.40435 11.2223 8.3424 11.191 8.29594 11.144C7.89328 10.6899 7.39771 10.6585 6.8247 10.7212C4.99727 10.9248 3.61895 10.0947 2.53488 8.66956C1.96187 7.91782 2.31806 6.9155 3.23178 6.61793C4.03709 6.36735 4.82691 6.08545 5.61674 5.78789C5.88001 5.69392 5.97293 5.52164 6.03488 5.27106C6.57691 2.87489 8.51275 1.13649 10.8977 0.870253C13.7318 0.557028 16.442 2.62431 16.9375 5.459C16.9995 5.78789 16.9995 6.11677 17.015 6.46132V6.44566ZM6.3601 9.62489C6.43753 9.51526 6.87116 9.78151 6.68532 9.40564C6.31364 8.66956 6.03488 7.91782 5.92647 7.10343C5.8955 6.89984 5.80258 6.89984 5.63222 6.96248C4.98178 7.21306 4.33134 7.43232 3.66541 7.63591C3.38665 7.71422 3.35567 7.87083 3.52603 8.09009C4.23842 9.0141 5.16762 9.56225 6.3601 9.62489Z" fill="#6AC17E"/>
<path d="M20.6857 27.839C18.5486 27.839 16.4114 27.839 14.2742 27.839C14.1503 27.839 14.0264 27.839 13.9026 27.839C13.6393 27.7921 13.4689 27.6198 13.4534 27.3379C13.438 27.0716 13.5618 26.868 13.8251 26.7741C13.9955 26.7114 14.1658 26.7114 14.3362 26.7114C18.595 26.7114 22.8384 26.7114 27.0972 26.7114C27.2521 26.7114 27.4225 26.7114 27.5618 26.7584C27.8406 26.8367 27.9645 27.056 27.9335 27.3379C27.9026 27.6198 27.7477 27.7764 27.4844 27.8234C27.376 27.839 27.2521 27.8234 27.1437 27.8234C24.991 27.8234 22.8384 27.8234 20.7012 27.8234L20.6857 27.839Z" fill="#6AC17E"/>
<path d="M10.3254 3.48584C11.6263 3.48584 12.6949 4.5508 12.6949 5.88201C12.6949 7.1819 11.5953 8.29384 10.3099 8.27818C9.0245 8.27818 7.94043 7.16623 7.94043 5.86635C7.94043 4.55081 9.00901 3.48584 10.3099 3.48584H10.3254ZM11.1152 4.91101C10.5732 4.45684 9.82981 4.51948 9.38069 5.0363C8.97804 5.49048 8.96255 6.22656 9.34972 6.57111C9.53556 5.38085 10.0002 4.94234 11.1152 4.91101ZM10.8984 6.86867C11.1926 6.86867 11.3165 6.71206 11.3475 6.46148C11.363 6.24222 11.1307 5.99164 10.9139 6.02296C10.6661 6.05429 10.5112 6.19524 10.5267 6.46148C10.5267 6.72772 10.6661 6.85301 10.8984 6.86867Z" fill="#6AC17E"/>
<path d="M20.5621 14.7148C19.3696 14.7148 18.1771 14.6834 16.9846 14.7148C15.405 14.7774 14.801 13.869 14.7236 12.5222C14.6771 11.7078 14.8475 10.9247 15.0178 10.1417C15.0953 9.81278 15.3895 9.64051 15.6838 9.70315C15.978 9.7658 16.1638 10.0634 16.0864 10.3922C15.947 11.097 15.7922 11.7861 15.8386 12.5065C15.8386 12.6788 15.8696 12.8511 15.9161 13.0077C16.0245 13.4149 16.2103 13.5558 16.6284 13.5558C17.9913 13.5558 19.3541 13.5558 20.7169 13.5558C21.9869 13.5558 23.2723 13.5558 24.5422 13.5558C24.8519 13.5558 25.1152 13.6185 25.2391 13.9474C25.3784 14.3545 25.0997 14.6991 24.6196 14.6991C23.2723 14.6991 21.9094 14.6991 20.5621 14.6991V14.7148Z" fill="#6AC17E"/>
<path d="M28.2282 23.3125C29.4052 23.3125 30.5667 23.3125 31.7437 23.3125C32.1773 23.3125 32.4251 23.5005 32.4406 23.845C32.4406 24.1739 32.1928 24.4245 31.7747 24.4245C30.861 24.4401 29.9318 24.4245 29.018 24.4245C27.6707 24.4245 26.3079 24.4245 24.9605 24.4245C24.8057 24.4245 24.6353 24.4245 24.4804 24.3775C24.1862 24.3149 23.9849 24.0643 24.0158 23.7824C24.0468 23.5005 24.2636 23.2969 24.5734 23.2969C25.5955 23.2969 26.6176 23.2969 27.6397 23.2969C27.8256 23.2969 28.0269 23.2969 28.2127 23.2969L28.2282 23.3125Z" fill="#6AC17E"/>
<path d="M8.51343 23.8608C9.69042 23.8608 10.8829 23.8608 12.0599 23.8608C12.3232 23.8608 12.5245 23.9548 12.6329 24.2054C12.7258 24.409 12.6639 24.5813 12.54 24.7535C12.4471 24.8632 12.3387 24.9415 12.1993 24.9571C12.0599 24.9728 11.905 24.9885 11.7656 24.9885C9.5975 24.9885 7.44485 24.9885 5.27671 24.9885C5.10635 24.9885 4.936 24.9885 4.76564 24.9415C4.45591 24.8788 4.30104 24.6596 4.33201 24.3463C4.36299 24.0331 4.56432 23.8765 4.85856 23.8765C5.58644 23.8765 6.31432 23.8765 7.04219 23.8765C7.53777 23.8765 8.01786 23.8765 8.51343 23.8765V23.8608Z" fill="#6AC17E"/>
<path d="M15.838 23.8611C16.0239 23.8611 16.1942 23.8611 16.3801 23.8611C16.6588 23.8924 16.8447 24.049 16.8756 24.3466C16.9066 24.6442 16.7672 24.8634 16.473 24.9261C16.0393 25.02 15.5902 25.02 15.1566 24.9261C14.8778 24.8634 14.7539 24.6442 14.7849 24.3466C14.8159 24.0647 14.9708 23.8924 15.234 23.8611C15.4354 23.8298 15.6367 23.8611 15.838 23.8611Z" fill="#6AC17E"/>
</g>
<defs>
<clipPath id="clip0_424_628">
<rect width="35" height="27" fill="white" transform="translate(0.800781 0.838867)"/>
</clipPath>
</defs>
</svg>
