<svg width="44" height="41" viewBox="0 0 44 41" fill="none" xmlns="http://www.w3.org/2000/svg">
<g clip-path="url(#clip0_447_366)">
<path d="M16.5929 20.6178C16.0597 21.9238 15.5691 23.1442 15.0786 24.3859C14.5241 25.8632 13.6283 27.0836 12.3912 28.0684C10.1944 29.8455 7.99763 31.6439 5.80083 33.4637C5.18231 33.9776 4.52114 34.2773 3.71067 34.1489C3.24145 34.0846 2.92153 34.2773 2.64426 34.6199C1.85512 35.5833 1.96176 37.082 2.9002 37.8956C4.45716 39.223 6.24872 40.0152 8.2749 40.165C11.2608 40.3577 14.2255 40.0152 17.1687 39.4799C19.2162 39.116 21.2424 38.6021 23.2046 37.8956C24.7402 37.3389 26.3399 37.2961 27.9181 37.2319C28.5153 37.2105 29.1338 37.2105 29.8377 37.1034C29.4538 36.8679 29.1552 36.6966 28.8566 36.5039C28.2381 36.1186 27.5982 35.7546 26.9797 35.3692C26.6811 35.1765 26.4465 35.1979 26.1479 35.3692C25.5081 35.776 24.8469 36.14 24.1857 36.5254C23.9511 36.6538 23.6952 36.8037 23.5032 36.5039C23.3113 36.1828 23.5672 36.0329 23.7805 35.9045C24.5483 35.4549 25.3161 35.0267 26.0626 34.5771C26.4252 34.363 26.7664 34.3844 27.129 34.5985C27.7902 35.0053 28.4727 35.3906 29.1125 35.7974C29.3898 35.9687 29.6457 36.0329 29.9656 36.0329C31.16 36.0115 32.3331 36.0329 33.5274 36.0329C33.6554 36.0329 33.7621 36.0329 33.89 36.0329C34.146 36.0329 34.3592 36.0972 34.3592 36.3969C34.3592 36.6966 34.1246 36.7823 33.89 36.7823C33.2715 36.8037 32.6317 36.7823 32.0131 36.7823C31.6719 36.7823 31.3093 36.7823 30.9681 36.7823C30.7548 36.7823 30.6481 36.8465 30.6481 37.1034C30.6268 37.6173 30.3495 37.8742 29.8377 37.8956C28.558 37.9598 27.2783 38.0455 26.0199 38.0669C25.1028 38.0883 24.2497 38.3452 23.2899 38.6449C24.2497 38.9447 25.1241 39.1374 25.9986 39.3087C28.622 39.8439 31.288 40.1008 33.9753 40.1865C36.556 40.2721 38.8382 39.6298 40.8643 38.0026C41.7175 37.3175 41.9947 36.3327 41.6535 35.305C41.6535 35.2836 41.6321 35.2408 41.6321 35.2194C41.5468 34.9838 41.4828 34.7055 41.7814 34.5985C42.1227 34.47 42.2293 34.7483 42.336 34.9838C42.5919 35.6261 42.5919 36.2684 42.4426 36.9107C42.272 37.5959 41.9094 38.1311 41.3762 38.5807C39.3287 40.2293 36.9826 40.9786 34.3592 40.9572C30.2429 40.9144 26.2332 40.3149 22.3088 39.1802C22.0529 39.116 21.8396 39.116 21.605 39.1802C19.0669 39.9295 16.4649 40.4434 13.8415 40.7217C11.986 40.9358 10.1091 41.0429 8.23224 40.9144C6.01411 40.7431 4.03059 39.9081 2.367 38.4094C1.21528 37.3818 1.04465 35.6261 1.94043 34.3201C2.13239 34.0418 2.15372 33.9562 1.79114 33.8491C1.17262 33.6564 0.639416 33.2925 0.234181 32.7786C0.0208994 32.5217 -0.10707 32.222 0.0422275 31.9008C0.212853 31.5583 0.511447 31.4512 0.874026 31.4512C1.72715 31.4512 2.58028 31.4298 3.43341 31.4726C4.00927 31.494 4.39317 31.2799 4.7131 30.8517C5.35294 30.0167 5.99278 29.1818 6.65396 28.3682C7.80568 26.9551 9.23467 25.8204 10.685 24.7285C11.6874 23.9791 12.178 23.0371 12.3699 21.8382C12.6045 20.2966 12.9458 18.7551 13.287 17.2136C13.7989 14.9013 15.7398 13.21 18.1072 12.953C19.6855 12.7818 20.176 11.5614 20.0267 10.2126C20.0054 9.97706 19.8348 9.91283 19.7068 9.80578C17.2541 7.77184 17.1474 3.811 19.4722 1.62719C19.5362 1.58437 19.5788 1.54155 19.6428 1.49873C19.8561 1.32745 20.0907 1.15617 20.3253 1.4345C20.5173 1.69142 20.3466 1.88411 20.1547 2.05539C19.003 3.04025 18.5124 4.32484 18.5551 5.80213C18.5977 6.97967 18.9816 8.02876 19.8134 8.88515C21.1998 10.3196 23.2686 10.2126 24.527 8.67105C26.1052 6.74416 25.828 3.42562 23.8871 1.99116C23.6738 1.81988 23.4606 1.62719 23.6738 1.34886C23.8871 1.07053 24.1431 1.24181 24.3563 1.41309C25.9986 2.61205 26.7238 5.11701 26.0626 7.30082C25.7427 8.39273 25.1455 9.33476 24.1857 9.99847C24.0151 10.1055 23.9298 10.234 23.9298 10.4481C23.8231 11.904 24.5483 12.8032 25.9986 12.9744C28.366 13.2528 30.2642 15.094 30.7548 17.5776C31.096 19.3118 31.4373 21.046 31.7785 22.7802C31.8852 23.3368 32.1624 23.8079 32.6103 24.1718C33.5488 24.9426 34.4872 25.7348 35.4257 26.5055C36.876 27.7045 37.985 29.2032 39.0941 30.7019C39.5207 31.2799 39.9685 31.5583 40.6937 31.5154C41.4828 31.4512 42.272 31.5154 43.0611 31.494C43.4237 31.494 43.7223 31.6011 43.8929 31.9436C44.0422 32.2862 43.9143 32.5645 43.701 32.8214C43.1038 33.5494 42.3146 33.9562 41.3975 34.0846C41.1203 34.1274 40.8217 34.1274 40.5444 34.1703C39.5633 34.2987 38.6889 34.106 38.0064 33.3567C37.5371 32.8643 36.9613 32.693 36.2788 32.7144C33.954 32.7358 31.6292 32.6288 29.3045 32.5431C28.558 32.5003 27.9395 32.1577 27.6622 31.4726C27.001 29.8455 26.2545 28.2183 25.9346 26.4627C25.6574 24.857 25.764 23.2726 26.2119 21.7097C26.4252 20.9818 26.6598 20.2752 26.8944 19.5687C26.9584 19.3546 27.0437 19.1405 27.2996 19.1405C27.5556 19.1405 27.6622 19.3332 27.7262 19.5473C28.2167 20.7891 28.7713 22.0308 29.1978 23.294C29.859 25.2637 31.032 26.8267 32.6743 28.1113C34.5939 29.5885 36.4707 31.1301 38.305 32.7144C38.9661 33.271 39.6273 33.5494 40.5018 33.4423C41.3122 33.3353 42.1227 33.2925 42.7625 32.7144C42.8692 32.6073 43.0611 32.5431 42.9971 32.3718C42.9332 32.222 42.7625 32.3076 42.6346 32.2862C41.9094 32.2862 41.2056 32.2648 40.4804 32.2862C39.6913 32.3076 39.0941 32.0079 38.6035 31.3656C37.4945 29.8669 36.3641 28.3468 34.9138 27.1264C34.018 26.3771 33.1222 25.6063 32.2051 24.8784C31.5013 24.3217 31.1174 23.6366 30.9467 22.7588C30.6268 21.046 30.2856 19.3546 29.9443 17.6418C29.5177 15.5008 27.9821 14.0449 25.828 13.7452C24.1857 13.5097 23.3539 12.6747 23.1406 11.0047C23.098 10.6408 22.9913 10.5337 22.6288 10.6194C22.1382 10.7478 21.6263 10.7264 21.1358 10.5765C20.8798 10.4481 20.8372 10.5551 20.7945 10.8549C20.6666 12.3322 19.9201 13.2956 18.7044 13.5953C18.3631 13.681 18.0005 13.681 17.6806 13.7666C15.4838 14.3233 14.2894 15.7791 13.8842 17.9844C13.5856 19.5901 13.2657 21.1959 12.9458 22.8016C12.7965 23.5938 12.4339 24.2575 11.7727 24.7927C10.8556 25.5207 9.95982 26.2914 9.06404 27.0408C7.61373 28.2397 6.48333 29.7598 5.37427 31.2585C4.86239 31.9436 4.24388 32.2648 3.39075 32.2434C2.66559 32.222 1.91911 32.2434 1.19395 32.2434C1.10864 32.2434 1.00199 32.222 0.93801 32.3076C0.874026 32.4361 1.00199 32.5003 1.06598 32.5645C1.66317 33.164 2.45231 33.2925 3.24145 33.3781C4.15856 33.4851 4.92638 33.2925 5.67286 32.6502C7.80568 30.8303 10.0025 29.0961 12.178 27.2977C13.0951 26.5483 13.7989 25.6063 14.2468 24.493C14.908 22.8658 15.5478 21.2387 16.209 19.6115C16.2943 19.376 16.3583 19.0977 16.6569 19.0977C16.9768 19.0977 17.0408 19.3974 17.1261 19.6329C17.6166 21.153 18.1498 22.6731 18.1925 24.3003C18.2352 25.7776 17.9579 27.212 17.446 28.6037C17.1474 29.4173 16.8275 30.2308 16.5076 31.0444C16.1023 32.0721 15.4838 32.4789 14.3748 32.5217C12.6898 32.5645 11.0049 32.6288 9.31998 32.693C9.17068 32.693 9.02138 32.693 8.87209 32.693C8.65881 32.6716 8.48818 32.5645 8.48818 32.329C8.48818 32.0721 8.65881 31.9865 8.87209 31.9436C8.93607 31.9222 9.02138 31.9222 9.1067 31.9222C10.6637 31.8794 12.2206 31.858 13.7562 31.8152C14.0975 31.8152 14.4174 31.7724 14.7587 31.7295C15.1852 31.6867 15.5265 31.4726 15.6758 31.0658C16.3156 29.3959 17.1261 27.7901 17.3607 25.9917C17.5527 24.2361 17.3394 22.4162 16.5929 20.6178ZM27.3849 20.6392C26.5745 22.6089 26.3825 24.5144 26.7238 26.4627C26.9584 27.8758 27.5982 29.1603 28.0888 30.4878C28.494 31.5797 28.7713 31.7938 29.9443 31.8152C31.8852 31.858 33.8047 31.9008 35.7456 31.9222C35.8735 31.9222 36.0228 31.9865 36.1295 31.8366C36.0442 31.7724 35.9802 31.6867 35.8949 31.6225C34.5512 30.5306 33.2502 29.4173 31.8852 28.3682C30.4988 27.2763 29.4324 25.9703 28.8352 24.2789C28.6006 23.6366 28.3234 22.9943 28.0674 22.3734C27.8755 21.8167 27.6622 21.2815 27.3849 20.6392Z" fill="#6AC17E"/>
<path d="M18.7473 35.947C18.534 35.8185 18.2994 35.7115 18.0861 35.5402C17.6382 35.1976 17.2117 35.0906 16.7424 35.4974C16.5505 35.6687 16.2732 35.7115 16.1239 35.4331C15.9746 35.1548 16.1879 35.0264 16.3585 34.8765C16.977 34.3841 17.5956 34.2342 18.2994 34.7694C18.6833 35.0692 19.1525 35.2833 19.6004 35.5402C19.9203 35.7329 20.3042 35.8827 20.1763 36.3538C20.0483 36.8248 19.6217 36.8034 19.2378 36.8034C16.7638 36.8034 14.2684 36.8034 11.7943 36.8034C11.2824 36.8034 10.7492 36.8034 10.2373 36.8034C9.96008 36.8034 9.5975 36.8248 9.57617 36.418C9.57617 35.9898 9.93875 36.0326 10.216 36.0326C12.9034 36.0326 15.5694 36.0326 18.2567 36.0326C18.4274 36.0326 18.5767 36.0326 18.7473 36.0326C18.726 36.0112 18.7473 35.9684 18.7473 35.947Z" fill="#6AC17E"/>
<path d="M22.949 1.00617C22.949 1.54142 22.5011 1.96962 21.9892 1.96962C21.456 1.96962 21.0508 1.54142 21.0508 0.984761C21.0508 0.406693 21.4773 -9.51756e-05 22.0319 0.0213147C22.5651 0.0213147 22.949 0.428103 22.949 1.00617Z" fill="#6AC17E"/>
<path d="M22.949 31.9006C22.949 32.4358 22.5224 32.864 21.9892 32.864C21.456 32.864 21.0508 32.4358 21.0508 31.8792C21.0508 31.3011 21.4773 30.8729 22.0319 30.8943C22.5651 30.9371 22.949 31.3439 22.949 31.9006Z" fill="#6AC17E"/>
<path d="M22.9488 36.5037C22.9488 37.0603 22.5436 37.4671 21.989 37.4671C21.4345 37.4671 21.0293 37.0389 21.0506 36.4609C21.0719 35.9256 21.4985 35.4974 22.0317 35.5188C22.5436 35.5188 22.9488 35.947 22.9488 36.5037Z" fill="#6AC17E"/>
<path d="M22.949 4.0249C22.949 4.58155 22.5438 4.98834 22.0105 5.00975C21.456 5.00975 21.0508 4.58155 21.0508 4.00349C21.0508 3.46824 21.4773 3.04004 22.0105 3.04004C22.5224 3.04004 22.949 3.46824 22.949 4.0249Z" fill="#6AC17E"/>
<path d="M22.949 12.1822C22.949 12.7389 22.5651 13.1456 22.0319 13.1671C21.456 13.1885 21.0508 12.7817 21.0508 12.2036C21.0508 11.6684 21.4773 11.2402 21.9892 11.2188C22.5011 11.2188 22.9277 11.6469 22.949 12.1822Z" fill="#6AC17E"/>
<path d="M22.9491 26.3126C22.9491 26.8692 22.5652 27.276 22.032 27.2974C21.4775 27.3188 21.0723 26.8906 21.0723 26.3126C21.0723 25.7773 21.4988 25.3491 22.0107 25.3491C22.5226 25.3491 22.9491 25.7773 22.9491 26.3126Z" fill="#6AC17E"/>
<path d="M21.9892 21.0672C21.4347 21.0672 21.0508 20.6818 21.0508 20.1251C21.0508 19.5685 21.4347 19.1831 21.9892 19.1831C22.5438 19.1831 22.9277 19.5685 22.9277 20.1251C22.949 20.6604 22.5651 21.0458 21.9892 21.0672Z" fill="#6AC17E"/>
<path d="M8.93594 20.2322C8.85063 20.2322 8.80797 20.2322 8.74399 20.2322C8.48805 20.2322 8.21078 20.2108 8.18945 19.8897C8.18945 19.5471 8.48805 19.4829 8.74399 19.4615C9.25586 19.4186 9.76774 19.3972 10.2796 19.3544C10.4716 19.333 10.6422 19.333 10.8341 19.333C11.0688 19.333 11.2607 19.4186 11.282 19.6756C11.282 19.9111 11.1327 20.0181 10.8981 20.0395C10.237 20.1038 9.55446 20.168 8.93594 20.2322Z" fill="#6AC17E"/>
<path d="M35.0207 20.2321C34.4235 20.1679 33.7624 20.1251 33.1012 20.0608C32.8666 20.0394 32.6746 19.9324 32.696 19.654C32.7173 19.3757 32.9306 19.3115 33.1652 19.3329C33.8264 19.3757 34.4662 19.3971 35.1274 19.4614C35.426 19.4828 35.7885 19.4828 35.7672 19.8896C35.7672 20.2749 35.4046 20.2321 35.0207 20.2321Z" fill="#6AC17E"/>
<path d="M14.1184 12.9528C14.1184 13.124 14.0545 13.2311 13.9265 13.2953C13.7985 13.3596 13.6492 13.3596 13.5426 13.2525C12.9454 12.6958 12.4122 12.075 11.9003 11.4327C11.7937 11.2828 11.815 11.1115 11.943 10.9616C12.0709 10.8118 12.2629 10.7904 12.3909 10.9188C12.988 11.4969 13.5426 12.1392 14.0545 12.7815C14.0971 12.8457 14.1184 12.9099 14.1184 12.9528Z" fill="#6AC17E"/>
<path d="M32.162 11.2403C32.1407 11.3902 32.0767 11.4973 31.97 11.6043C31.5221 12.1181 31.0529 12.632 30.5837 13.1244C30.4131 13.2957 30.2211 13.4456 29.9865 13.2529C29.7306 13.0388 29.8586 12.8033 30.0292 12.6106C30.4984 12.0753 30.9676 11.5615 31.4368 11.0476C31.5648 10.9192 31.7141 10.7907 31.9061 10.8764C32.0767 10.962 32.162 11.0691 32.162 11.2403Z" fill="#6AC17E"/>
</g>
<defs>
<clipPath id="clip0_447_366">
<rect width="44" height="41" fill="white"/>
</clipPath>
</defs>
</svg>
