<svg width="37" height="42" viewBox="0 0 37 42" fill="none" xmlns="http://www.w3.org/2000/svg">
<g clip-path="url(#clip0_441_202)">
<path d="M34.5973 0.680176C34.7145 0.738664 34.8317 0.797152 34.9489 0.855639C35.9646 1.38203 36.2967 2.61028 35.6912 3.64356C34.7731 5.22273 33.855 6.80191 32.9369 8.38108C32.5267 9.08293 32.1165 9.78479 31.7063 10.4866C31.5696 10.7206 31.4915 10.974 31.4915 11.247C31.4915 13.5865 31.4915 15.9065 31.4915 18.246C31.4915 18.519 31.5501 18.6944 31.8235 18.8504C32.4486 19.2013 32.7807 19.7667 32.7807 20.4881C32.7807 23.042 32.8002 25.5765 32.7807 28.1305C32.7807 28.5204 32.8979 28.7154 33.269 28.8713C35.1247 29.6317 36.2576 31.0159 36.5701 32.985C37.1171 36.4358 34.3824 39.0872 31.511 39.1067C30.6711 39.1067 29.8311 39.1067 28.9912 39.1067C28.5224 39.1067 28.2489 38.8728 28.2489 38.4633C28.2489 38.0344 28.5029 37.781 28.9912 37.781C29.9288 37.7615 30.8664 37.82 31.7845 37.7225C33.5229 37.547 35.0465 36.0653 35.2223 34.3302C35.3981 32.4586 34.5582 30.8989 32.8197 30.1776C26.8425 27.6821 20.8458 25.2646 14.6146 23.432C13.0324 22.9641 11.4502 22.5351 9.7899 22.4767C8.2663 22.4377 6.84036 22.8081 5.57069 23.6464C3.44155 25.0306 2.25002 26.9802 2.03515 29.5342C1.70308 33.5114 4.67216 37.0011 8.40303 37.6055C8.98903 37.703 9.57503 37.742 10.161 37.742C15.4936 37.742 20.8263 37.742 26.1589 37.742C26.7253 37.742 26.9988 37.9759 26.9988 38.4244C26.9988 38.7753 26.7644 39.0287 26.4128 39.0677C26.2761 39.0872 26.1393 39.0677 26.0026 39.0677C20.5723 39.0677 15.142 39.0287 9.7313 39.0677C5.39489 39.1067 1.35148 35.8314 0.706881 31.2693C0.0818135 26.8632 2.89462 22.5741 7.19196 21.4044C7.56309 21.3069 7.69983 21.1704 7.69983 20.761C7.68029 19.0259 7.68029 17.2907 7.69983 15.5556C7.69983 15.3411 7.69983 15.1852 7.46543 15.0487C6.25436 14.4833 5.74649 13.4695 5.76602 12.1048C5.78556 10.8961 6.25436 9.97975 7.28963 9.37537C8.71556 8.53705 10.5126 8.98545 11.4112 10.3697C11.5284 10.5451 11.6456 10.7401 11.7237 10.9351C11.8995 11.403 12.2316 11.5589 12.7199 11.5394C13.2278 11.5199 13.7356 11.5199 14.2435 11.5394C15.2983 11.5589 16.0992 12.3972 16.0992 13.489C16.0992 14.5613 15.2788 15.4191 14.224 15.4191C13.4817 15.4191 12.7199 15.4386 11.9776 15.4191C11.7042 15.4191 11.6065 15.4971 11.6065 15.7895C11.6065 17.5247 11.6065 19.2598 11.6065 20.995C11.6065 21.2094 11.6651 21.3459 11.8995 21.3849C16.0601 22.2427 20.0254 23.7244 23.9907 25.1866C24.5962 25.4205 25.2213 25.6545 25.8268 25.8884C26.2956 26.0639 26.2956 26.0639 26.2956 25.557C26.2956 23.9194 26.2956 22.2817 26.2956 20.644C26.2956 19.3963 27.0965 18.6165 28.3466 18.597C28.8349 18.597 29.3037 18.5775 29.7921 18.597C30.046 18.597 30.1437 18.4995 30.1437 18.246C30.1437 16.0235 30.1437 13.7815 30.1437 11.5589C30.1437 11.286 30.0655 11.169 29.7725 11.169C28.7568 11.169 28.9131 11.1105 28.9131 11.9878C28.9131 13.528 28.9131 15.0487 28.9131 16.5889C28.9131 16.9593 28.7959 17.2517 28.4052 17.3492C27.9364 17.4662 27.5848 17.1543 27.5653 16.6474C27.5653 15.3801 27.5653 14.1129 27.5653 12.8457C27.5653 12.4557 27.5457 12.0658 27.5653 11.6759C27.5848 11.3055 27.4676 11.169 27.0769 11.169C25.4166 11.1885 23.7563 11.1885 22.0959 11.169C21.4123 11.169 20.7677 11.013 20.2989 10.4477C19.83 9.82378 19.7324 9.10243 20.0644 8.38108C20.3965 7.62074 21.0021 7.23082 21.8225 7.23082C24.0883 7.21132 26.3347 7.21132 28.6005 7.23082C28.9131 7.23082 29.1084 7.13334 29.2647 6.86039C30.2023 5.24223 31.1594 3.64356 32.0775 2.0059C32.4095 1.42102 32.8197 0.933623 33.4643 0.680176C33.8355 0.680176 34.2261 0.680176 34.5973 0.680176ZM31.4329 24.2508C31.4329 23.1005 31.4329 21.9308 31.4329 20.7805C31.4329 20.1761 31.1985 19.9422 30.5929 19.9227C29.8897 19.9227 29.2061 19.9227 28.5029 19.9227C27.8973 19.9227 27.6629 20.1566 27.6434 20.7805C27.6434 22.6131 27.6434 24.4263 27.6434 26.2589C27.6434 26.5123 27.7411 26.6488 27.9755 26.7463C29.0107 27.1557 30.0655 27.5651 31.1008 27.994C31.4133 28.1305 31.4524 28.033 31.4524 27.7406C31.4329 26.5708 31.4329 25.401 31.4329 24.2508ZM26.0807 9.78479C27.4285 9.78479 28.7763 9.78479 30.1241 9.78479C30.4171 9.78479 30.5734 9.68731 30.7297 9.43386C31.6087 7.91318 32.5072 6.39249 33.3862 4.87181C33.7769 4.20894 34.1675 3.54608 34.5582 2.86372C34.734 2.55179 34.6363 2.23985 34.3629 2.06439C34.0894 1.88893 33.7769 1.96691 33.562 2.25935C33.5034 2.33733 33.4448 2.43481 33.3862 2.53229C32.3314 4.32592 31.2766 6.11955 30.2413 7.91318C29.9679 8.40057 29.5967 8.59553 29.0498 8.59553C27.2137 8.57604 25.3971 8.59553 23.5609 8.59553C22.9945 8.59553 22.4085 8.59553 21.842 8.59553C21.5099 8.59553 21.3341 8.79049 21.2951 9.12193C21.2755 9.45336 21.4513 9.64832 21.7639 9.7263C21.8811 9.76529 22.0373 9.7458 22.1545 9.7458C23.4633 9.78479 24.772 9.78479 26.0807 9.78479ZM11.2354 14.0934C12.3097 14.0934 13.1692 14.1129 14.0286 14.0934C14.4584 14.0934 14.7318 13.8205 14.7318 13.4695C14.7318 13.1381 14.4584 12.9041 14.0482 12.8651C13.9505 12.8651 13.8528 12.8651 13.7747 12.8651C13.2864 12.8651 12.8176 12.8651 12.3292 12.8651C11.6456 12.8651 11.1182 12.5532 10.747 12.0073C10.6103 11.8124 10.5126 11.5979 10.3954 11.3835C9.9657 10.5646 9.22343 10.1942 8.3835 10.3892C7.60216 10.5841 7.07476 11.3835 7.11383 12.2998C7.15289 13.2161 7.69983 13.8789 8.53976 14.0154C9.51643 14.1909 10.4931 14.0544 11.2354 14.0934ZM10.2587 18.324C10.2587 17.6222 10.2587 16.9203 10.2587 16.199C10.2587 15.3216 10.3759 15.4386 9.47736 15.4191C9.10623 15.4191 9.0281 15.5556 9.0281 15.887C9.04763 17.3687 9.0281 18.8504 9.0281 20.3126C9.0281 21.2484 8.89136 21.1119 9.8485 21.1314C10.1806 21.1509 10.2587 21.0145 10.2587 20.7025C10.2587 19.9227 10.2587 19.1234 10.2587 18.324Z" fill="#6AC17E"/>
<path d="M5.12109 30.1193C5.14063 27.8187 6.9377 25.7912 9.14497 25.6352C11.7038 25.4402 13.8134 27.0974 14.1455 29.5149C14.1846 29.7293 14.165 29.9633 14.165 30.1972C14.1455 30.5482 13.8916 30.7821 13.54 30.8016C13.1884 30.8211 12.8954 30.6261 12.8368 30.2752C12.7782 30.0023 12.7782 29.7098 12.7196 29.4369C12.3484 27.9552 11.1178 26.9414 9.5747 26.9804C7.91437 27.0389 6.7033 28.1892 6.5275 29.7683C6.2931 31.6009 7.71903 33.1216 9.30124 33.2386C9.43797 33.2581 9.5747 33.2776 9.6919 33.2971C10.1216 33.3751 10.3365 33.6285 10.2974 34.0379C10.2584 34.4084 10.0044 34.6228 9.5747 34.6423C7.7581 34.7008 5.98056 33.4531 5.35549 31.6399C5.25783 31.3865 5.19923 31.0941 5.14063 30.8211C5.12109 30.6067 5.14063 30.3532 5.12109 30.1193Z" fill="#6AC17E"/>
<path d="M15.201 35.2855C14.2438 35.5779 13.482 35.0125 12.7398 34.1937C11.6264 32.985 10.4153 31.8347 9.24329 30.6844C8.96982 30.4115 8.89169 30.1191 9.08702 29.7876C9.26282 29.4952 9.53629 29.4172 9.84882 29.4952C10.0442 29.5342 10.1614 29.6901 10.2981 29.8266C11.5873 31.1134 12.8765 32.3806 14.1462 33.6673C14.3415 33.8818 14.5564 33.9598 14.8494 33.9598C15.4549 33.9403 16.0409 33.9403 16.6464 33.9598C17.1152 33.9598 17.3692 34.2132 17.3692 34.6226C17.3692 35.032 17.0957 35.2855 16.6464 35.2855C16.2362 35.2855 15.826 35.2855 15.201 35.2855Z" fill="#6AC17E"/>
<path d="M7.05504 41.6802C6.23463 41.6802 5.43377 41.6802 4.61336 41.6802C4.12503 41.6802 3.85156 41.4268 3.8711 40.9979C3.8711 40.5884 4.14456 40.3545 4.61336 40.3545C6.2737 40.3545 7.93404 40.3545 9.57484 40.3545C10.0632 40.3545 10.3366 40.6079 10.3171 41.0369C10.3171 41.4463 10.0436 41.6802 9.57484 41.6802C8.73491 41.6802 7.89497 41.6802 7.05504 41.6802Z" fill="#6AC17E"/>
<path d="M30.1634 41.6802C29.343 41.6802 28.5422 41.6802 27.7218 41.6802C27.2139 41.6802 26.96 41.4463 26.96 41.0174C26.96 40.5884 27.2334 40.3545 27.7218 40.3545C29.3626 40.3545 31.0034 40.3545 32.6442 40.3545C33.152 40.3545 33.406 40.5884 33.406 41.0174C33.406 41.4463 33.1325 41.6802 32.6442 41.6802C31.8238 41.6802 30.9838 41.6802 30.1634 41.6802Z" fill="#6AC17E"/>
</g>
<defs>
<clipPath id="clip0_441_202">
<rect width="36" height="41" fill="white" transform="translate(0.628906 0.680176)"/>
</clipPath>
</defs>
</svg>
