<svg width="37" height="39" viewBox="0 0 37 39" fill="none" xmlns="http://www.w3.org/2000/svg">
<g clip-path="url(#clip0_441_403)">
<path d="M10.6062 10.7843C13.0564 10.7843 15.5067 10.7843 17.9404 10.7843C18.072 10.7843 18.2036 10.7843 18.3187 10.7843C18.7133 10.7677 19.0093 10.6016 19.1573 10.236C19.3053 9.87042 19.2231 9.52146 18.9271 9.23897C18.0391 8.34166 17.1347 7.44434 16.2467 6.54703C14.7338 5.0515 13.2373 3.53936 11.7244 2.04383C10.968 1.29607 10.1951 1.29607 9.43866 2.04383C8.94533 2.52572 8.46844 3.02423 7.97511 3.50612C7.89289 3.60582 7.77777 3.72214 7.66266 3.80523C7.33377 4.05448 6.93911 4.03786 6.65955 3.75538C6.38 3.47289 6.36355 3.05746 6.65955 2.74174C7.33378 2.04383 7.99155 1.3293 8.73155 0.714473C9.932 -0.315778 11.5929 -0.216076 12.7111 0.89726C15.1284 3.2901 17.5458 5.69956 19.9467 8.12564C21.2129 9.40514 20.9333 11.233 19.3382 12.0639C19.108 12.1802 19.0422 12.3297 19.0422 12.5624C19.0587 13.8419 19.0587 15.138 19.0422 16.4175C19.0422 16.8163 19.1902 16.916 19.552 16.8994C20.3578 16.8828 21.1636 16.8495 21.9529 16.9991C23.7947 17.348 25.0938 18.4282 25.768 20.1895C26.5409 22.167 27.2644 24.161 28.0044 26.155C28.2018 26.7034 28.0538 27.1022 27.6098 27.2684C27.1987 27.4179 26.8204 27.2019 26.6231 26.6702C25.916 24.7924 25.2089 22.9147 24.5182 21.037C23.844 19.2258 22.66 18.3783 20.736 18.3783C20.292 18.3783 19.848 18.3783 19.404 18.3783C19.1738 18.3783 19.0751 18.4614 19.0587 18.7106C18.9764 19.8904 18.9764 19.8904 20.1276 19.9071C21.6076 19.9403 22.6436 20.6714 23.1862 22.0673C24.88 26.5372 26.5573 31.0072 28.2347 35.4771C28.728 36.7733 29.6489 37.4546 31.0467 37.4878C32.4115 37.521 33.76 37.4878 35.1249 37.5044C35.4044 37.5044 35.536 37.4213 35.5196 37.1388C35.5196 37.0391 35.5196 36.9394 35.5196 36.8397C35.5524 36.0754 35.5524 36.0754 34.7631 36.0754C33.7435 36.0587 32.724 36.0587 31.7209 36.0089C30.652 35.959 29.912 35.3941 29.5173 34.4137C28.8924 32.8351 28.3169 31.2232 27.7249 29.628C27.5276 29.0962 27.6756 28.6974 28.0702 28.5313C28.5142 28.3485 28.8924 28.5479 29.0898 29.0962C29.6489 30.5918 30.208 32.1039 30.7671 33.5994C31.0467 34.3306 31.2769 34.4967 32.0333 34.5134C33.0693 34.5134 34.0889 34.5134 35.1249 34.5134C35.388 34.5134 35.6347 34.53 35.8978 34.5798C36.4898 34.6962 36.9502 35.2279 36.9831 35.8261C36.9995 36.4409 37.016 37.0724 36.9831 37.6872C36.9502 38.3353 36.3747 38.9335 35.7169 38.9501C33.9409 38.9667 32.1649 39.0498 30.3889 38.9169C28.6458 38.7839 27.4618 37.7204 26.8204 36.0587C26.3929 34.962 25.9818 33.8487 25.5707 32.7354C24.3209 29.3787 23.0547 26.0387 21.7884 22.6821C21.3938 21.6186 20.2262 21.0702 19.1902 21.4192C19.0587 21.4691 19.0258 21.5521 19.0258 21.6851C19.0258 21.8346 19.0422 21.9676 19.0258 22.1171C18.96 22.6821 19.0258 23.0643 19.7329 23.2637C20.736 23.5628 21.2622 24.6263 21.1636 25.7562C21.0813 26.7034 20.3084 27.5841 19.3382 27.8167C18.6804 27.9663 18.6804 27.9663 18.6804 28.6642C18.6804 31.4558 18.6804 34.2475 18.6804 37.0391C18.6804 38.3186 18.0884 38.9169 16.8222 38.9169C16.4769 38.9169 16.1316 38.9169 15.7862 38.9169C14.8653 38.9002 14.1911 38.2522 14.1747 37.305C14.1582 36.7899 14.1582 36.2581 14.1747 35.743C14.1911 35.4439 14.0596 35.3442 13.7636 35.3442C11.6422 35.3442 9.52089 35.3608 7.416 35.3442C7.08711 35.3442 6.98844 35.4605 7.00489 35.7763C7.02133 36.2581 7.02133 36.7234 7.00489 37.2053C6.98844 38.2522 6.33066 38.9002 5.31111 38.9169C5.01511 38.9169 4.70266 38.9002 4.40666 38.9169C3.14044 39.0498 2.44978 38.1359 2.48266 36.9561C2.532 34.1312 2.49911 31.2897 2.49911 28.4482C2.49911 28.0826 2.44978 27.8998 2.00578 27.85C0.887553 27.7835 0.065331 26.8696 -0.00044677 25.7728C-0.082669 24.377 0.525775 23.4465 1.70978 23.1474C1.98933 23.0809 2.088 22.948 2.088 22.6821C2.088 19.2922 2.088 15.919 2.088 12.5291C2.088 12.2799 1.98933 12.1469 1.77555 12.0306C0.24622 11.1832 -0.0168912 9.37191 1.21644 8.12564C2.31822 7.0123 3.43644 5.91558 4.55466 4.81886C4.62044 4.75239 4.66978 4.70254 4.752 4.65269C5.08089 4.40344 5.44266 4.42005 5.72222 4.70254C6.00178 4.96841 6.01822 5.3506 5.75511 5.69956C5.67289 5.81588 5.55778 5.91558 5.45911 6.01528C4.42311 7.04553 3.37066 8.07579 2.33466 9.10604C2.00578 9.42176 1.82489 9.78733 2.00578 10.236C2.17022 10.668 2.54844 10.801 3.00889 10.801C5.54133 10.7844 8.07377 10.7843 10.6062 10.7843ZM10.5733 26.4043C13.2702 26.4043 15.9507 26.4043 18.6476 26.4043C19.3382 26.4043 19.7493 26.072 19.7493 25.5402C19.7493 24.8921 19.3876 24.5598 18.664 24.5598C17.9076 24.5598 17.1511 24.5598 16.3947 24.5598C15.9013 24.5598 15.5724 24.2441 15.5724 23.812C15.5724 23.4132 15.9013 23.0975 16.3618 23.0477C16.6249 23.031 16.8716 23.0144 17.1347 23.0477C17.5129 23.0809 17.628 22.9313 17.628 22.5492C17.6116 19.2922 17.6116 16.0519 17.628 12.795C17.628 12.4128 17.4964 12.2965 17.1347 12.3131C12.7933 12.3297 8.43555 12.3297 4.09422 12.3131C3.73244 12.3131 3.60089 12.4128 3.60089 12.8116C3.61733 16.0685 3.61733 19.3088 3.60089 22.5658C3.60089 22.948 3.716 23.0643 4.09422 23.0643C5.75511 23.0477 7.416 23.0643 9.07689 23.0643C10.4911 23.0643 11.9053 23.0643 13.3196 23.0643C13.9444 23.0643 14.2569 23.3302 14.2733 23.8287C14.2733 24.3272 13.9609 24.5764 13.336 24.5764C12.7276 24.5764 12.1356 24.5764 11.5271 24.5764C8.51777 24.5764 5.52489 24.5764 2.51555 24.5764C2.088 24.5764 1.75911 24.6927 1.56178 25.0916C1.21644 25.7064 1.644 26.4043 2.384 26.4043C5.11378 26.4209 7.84355 26.4043 10.5733 26.4043ZM10.5569 33.8819C11.6258 33.8819 12.7111 33.8819 13.78 33.8819C14.0596 33.8819 14.1911 33.7988 14.1911 33.4831C14.1747 32.9514 14.1747 32.4196 14.1911 31.8713C14.1911 31.6054 14.1089 31.4725 13.8293 31.4725C11.6751 31.4725 9.53733 31.4725 7.38311 31.4725C7.08711 31.4725 7.00489 31.6054 7.02133 31.8713C7.03777 32.3698 7.03777 32.8849 7.02133 33.3834C7.00489 33.7822 7.15289 33.8819 7.51466 33.8653C8.51777 33.8653 9.53733 33.8819 10.5569 33.8819ZM10.5733 29.9769C11.6093 29.9769 12.6618 29.9603 13.6978 29.9769C14.076 29.9936 14.2076 29.844 14.1747 29.4784C14.1418 29.0962 14.1582 28.6974 14.1747 28.3152C14.1911 28.0328 14.076 27.933 13.7964 27.933C11.6587 27.933 9.52089 27.933 7.36666 27.933C7.08711 27.933 6.98844 28.0494 6.98844 28.3152C7.00489 28.714 7.00489 29.1295 6.98844 29.5283C6.972 29.8606 7.08711 29.9936 7.43244 29.9769C8.48489 29.9603 9.53733 29.9769 10.5733 29.9769ZM5.50844 32.7187C5.50844 31.4392 5.50844 30.1431 5.50844 28.8636C5.50844 27.7835 5.65644 27.933 4.57111 27.933C3.99555 27.933 3.99555 27.933 3.99555 28.498C3.99555 31.1567 3.99555 33.8155 3.99555 36.4742C3.99555 37.654 3.84755 37.4878 5.01511 37.521C5.39333 37.5377 5.50844 37.3881 5.50844 37.0225C5.492 35.5769 5.50844 34.1478 5.50844 32.7187ZM17.184 32.7187C17.184 31.4392 17.184 30.1431 17.184 28.8636C17.184 27.7835 17.332 27.933 16.2467 27.9164C15.6711 27.9164 15.6711 27.9164 15.6711 28.4814C15.6711 31.1567 15.6711 33.8155 15.6711 36.4908C15.6711 37.6374 15.5396 37.4712 16.6907 37.4878C17.0689 37.5044 17.184 37.3549 17.184 36.9893C17.184 35.5769 17.184 34.1478 17.184 32.7187Z" fill="#6AC17E"/>
</g>
<defs>
<clipPath id="clip0_441_403">
<rect width="37" height="39" fill="white"/>
</clipPath>
</defs>
</svg>
