<svg width="52" height="42" viewBox="0 0 52 42" fill="none" xmlns="http://www.w3.org/2000/svg">
<g clip-path="url(#clip0_447_353)">
<path d="M51.9992 30.3429C51.7585 30.7286 51.3645 30.7715 50.9268 30.7715C45.0834 30.7715 39.2181 30.7715 33.3746 30.7715C32.6305 30.7715 32.6305 30.7715 32.6305 31.5C32.6305 33.7286 32.6305 35.9786 32.6305 38.2072C32.6305 40.1572 31.4268 41.5929 29.5228 41.9357C28.2753 42.15 27.181 41.7429 26.3056 40.8643C26.1305 40.6929 26.0211 40.5857 25.8023 40.8215C24.6423 41.9786 23.2635 42.3215 21.7315 41.7C20.1558 41.0572 19.4555 39.8143 19.4336 38.2072C19.4117 35.9357 19.4117 33.6643 19.4336 31.3929C19.4336 30.9 19.3023 30.75 18.777 30.75C12.9555 30.7715 7.1339 30.7715 1.31235 30.75C1.13727 30.75 0.940301 30.75 0.765217 30.75C0.26185 30.7072 -0.0226622 30.4286 -0.000776668 29.9786C0.0211089 29.55 0.283735 29.3143 0.765217 29.3143C1.31235 29.2929 1.88138 29.3143 2.4504 29.3143C5.33929 29.3143 8.22818 29.3143 11.1171 29.3143C11.511 29.3143 11.6204 29.2715 11.4235 28.8643C11.0076 28.0929 10.942 27.2572 11.2484 26.4215C12.474 23.1 13.6339 19.7786 14.9251 16.4786C16.0851 13.5215 19.0834 11.6357 22.3225 11.6357C24.7736 11.6357 27.2248 11.6357 29.676 11.6357C33.0245 11.6357 36.0228 13.65 37.2046 16.7357C38.4083 19.8857 39.5464 23.0572 40.7063 26.2072C41.0565 27.1286 41.0565 28.0286 40.575 28.9072C40.3561 29.3357 40.5531 29.3143 40.8814 29.3143C44.2736 29.3143 47.644 29.3143 51.0363 29.3143C51.4083 29.3143 51.7366 29.3786 51.9992 29.6572C51.9992 29.8715 51.9992 30.1072 51.9992 30.3429ZM20.878 22.5857C20.878 23.9357 20.878 25.3072 20.878 26.6572C20.878 27.0215 20.9437 27.0857 21.2938 26.8929C22.8039 26.0786 24.511 26.3143 25.7147 27.4929C25.9555 27.75 26.0868 27.75 26.3275 27.4929C27.5312 26.3143 29.2383 26.0572 30.7046 26.85C31.0985 27.0643 31.1642 27 31.1642 26.5929C31.1423 24 31.1642 21.3857 31.1642 18.7929C31.1642 18.6429 31.1642 18.4929 31.1642 18.3429C31.1861 17.9786 31.3612 17.7429 31.7332 17.6786C32.1053 17.6143 32.4117 17.7429 32.5649 18.0857C32.6305 18.2143 32.6743 18.3643 32.7181 18.4929C33.5497 20.85 34.3814 23.2286 35.1911 25.5857C35.4757 26.4215 35.7602 27.2572 36.0884 28.0715C36.3511 28.7786 37.0952 29.2286 37.7955 29.1857C38.5615 29.1429 39.1524 28.6286 39.3932 27.8786C39.5464 27.4072 39.3932 27 39.24 26.5715C38.1457 23.6143 37.0514 20.6572 35.979 17.7C34.8629 14.6786 32.5649 13.0715 29.2821 13.0715C27.0935 13.0715 24.9268 13.0715 22.7383 13.0715C22.1911 13.0715 21.6221 13.1143 21.075 13.2215C18.6019 13.7572 16.9386 15.2357 16.0851 17.5715C15.4723 19.2643 14.8376 20.9572 14.2248 22.6715C13.6777 24.15 13.1305 25.6286 12.6272 27.1286C12.3645 27.9429 12.9336 28.8643 13.7871 29.1215C14.772 29.4 15.6474 28.9286 16.0194 27.8572C17.1356 24.6857 18.2517 21.5143 19.3679 18.3215C19.543 17.8072 19.8713 17.5929 20.2871 17.6786C20.7686 17.7857 20.8561 18.1286 20.8561 18.5357C20.8561 19.9072 20.878 21.2572 20.878 22.5857ZM20.9437 34.2C20.9437 35.5715 20.9437 36.9429 20.9437 38.3143C20.9437 38.7 20.9874 39.0643 21.1844 39.4072C21.6659 40.2215 22.6289 40.6715 23.548 40.4357C24.5767 40.1786 25.2551 39.3857 25.2551 38.3143C25.277 35.5929 25.2551 32.85 25.2551 30.1286C25.2551 28.8643 24.314 27.8786 23.1103 27.8786C22.1255 27.8786 20.878 28.6072 20.9218 30.1286C20.9656 31.4786 20.9437 32.85 20.9437 34.2ZM31.0767 34.2429C31.0767 32.8715 31.0767 31.5 31.0767 30.1286C31.0767 29.7429 31.0329 29.3786 30.8359 29.0143C30.3763 28.1786 29.3915 27.7286 28.4942 27.9215C27.4437 28.1572 26.7652 28.9715 26.7433 30.0643C26.7214 32.8072 26.7214 35.55 26.7433 38.3143C26.7433 39.5357 27.7282 40.5 28.8881 40.5215C30.1137 40.5215 31.0329 39.6 31.0548 38.3143C31.0985 36.9643 31.0767 35.6143 31.0767 34.2429ZM19.3898 23.0143C18.5581 25.0072 17.9891 27.0643 17.1575 29.0357C17.048 29.3143 17.2231 29.2929 17.3982 29.2929C17.9016 29.2929 18.4049 29.2715 18.9083 29.2929C19.2804 29.3143 19.4117 29.1643 19.4117 28.8C19.3679 26.8929 19.3898 24.9643 19.3898 23.0143ZM32.7181 23.0143C32.6962 23.0143 32.6743 23.0143 32.6524 23.0357C32.6524 24.9643 32.6524 26.9143 32.6524 28.8429C32.6524 29.2072 32.7837 29.3572 33.1558 29.3357C33.5497 29.3143 33.9656 29.3357 34.3814 29.3357C35.0161 29.3357 34.9942 29.3357 34.7534 28.7572C34.644 28.5215 34.5565 28.2643 34.4689 28.0072C33.878 26.3143 33.2871 24.6643 32.7181 23.0143Z" fill="#6AC17E"/>
<path d="M26.0212 0C29.0633 0 31.6239 2.50714 31.602 5.48571C31.602 8.46428 29.0414 10.9714 25.9993 10.9714C22.9572 10.9714 20.3747 8.44286 20.3966 5.44286C20.4185 2.46429 22.9572 0 26.0212 0ZM30.07 5.48571C30.07 3.25714 28.2535 1.45714 25.9993 1.45714C23.7451 1.45714 21.9286 3.25714 21.9505 5.48571C21.9505 7.71429 23.7232 9.45 25.9993 9.45C28.2973 9.45 30.07 7.73571 30.07 5.48571Z" fill="#6AC17E"/>
<path d="M4.15686 16.0073C4.72589 16.0073 5.07605 16.6073 4.79154 17.1216C4.59457 17.5073 4.35383 17.8716 4.13498 18.2359C3.85047 18.7073 3.6535 19.2216 3.45653 19.7359C3.15013 20.4859 3.1939 21.2145 3.63161 21.9216C4.59457 23.5288 4.92286 25.2859 4.94474 27.1073C4.94474 27.2359 4.94474 27.3859 4.92286 27.493C4.83531 27.8788 4.59457 28.1359 4.20063 28.1359C3.78481 28.1145 3.52218 27.8788 3.47841 27.4502C3.41276 26.7859 3.39087 26.1216 3.30333 25.4788C3.1939 24.4502 2.84373 23.5073 2.31848 22.6288C1.64003 21.493 1.61814 20.3359 2.07774 19.1359C2.40602 18.193 2.8875 17.293 3.47841 16.4573C3.63161 16.2002 3.85047 16.0288 4.15686 16.0073Z" fill="#6AC17E"/>
<path d="M43.1348 26.6359C43.2004 25.1573 43.4631 23.5716 44.3166 22.1573C44.8856 21.2145 44.8856 20.2931 44.4479 19.3073C44.1415 18.6002 43.7694 17.9359 43.3536 17.2931C43.0253 16.7788 43.0691 16.3931 43.4849 16.1145C43.857 15.8788 44.2728 15.9859 44.6011 16.4788C45.3671 17.6359 46.0237 18.8359 46.2863 20.2288C46.4395 21.0431 46.2206 21.7716 45.8486 22.4788C45.3452 23.4002 44.9294 24.3645 44.7981 25.4145C44.7324 26.0145 44.6449 26.6359 44.6449 27.2359C44.6449 27.7931 44.3604 28.1359 43.9226 28.1359C43.463 28.1573 43.1785 27.7931 43.1567 27.2145C43.1348 27.0645 43.1348 26.9145 43.1348 26.6359Z" fill="#6AC17E"/>
<path d="M47.0961 26.8715C47.1618 25.2001 47.4244 23.5715 48.3217 22.1143C48.8907 21.1929 48.8688 20.3143 48.453 19.3715C48.1466 18.6643 47.7746 17.9786 47.3368 17.3143C47.0086 16.8215 47.0523 16.3929 47.4463 16.1358C47.8402 15.8786 48.2342 15.9858 48.5843 16.5001C49.2409 17.4643 49.788 18.4929 50.1163 19.6286C50.4008 20.6143 50.3133 21.5358 49.8099 22.4143C49.2628 23.4001 48.8251 24.4072 48.7156 25.5429C48.65 26.1429 48.6281 26.7215 48.5624 27.3215C48.5187 27.8358 48.2342 28.1572 47.7964 28.1358C47.3806 28.1143 47.0961 27.7929 47.0742 27.2786C47.0961 27.1501 47.0961 27.0001 47.0961 26.8715Z" fill="#6AC17E"/>
<path d="M5.68945 20.7431C5.79888 19.3931 6.3679 18.2145 7.04636 17.0788C7.17767 16.8431 7.33087 16.6288 7.48407 16.4145C7.79046 15.9859 8.16252 15.9002 8.53457 16.1359C8.92851 16.3716 9.01605 16.7788 8.73154 17.2074C8.27194 17.9145 7.85612 18.6645 7.52784 19.4359C7.1339 20.3574 7.1339 21.1931 7.65915 22.0716C8.60023 23.6574 8.90662 25.4145 8.88474 27.2145C8.88474 27.7931 8.57834 28.1574 8.11875 28.1359C7.68104 28.1145 7.39652 27.7716 7.39652 27.2359C7.37464 25.5431 7.06824 23.9145 6.17093 22.4359C5.86454 21.9216 5.68945 21.3431 5.68945 20.7431Z" fill="#6AC17E"/>
</g>
<defs>
<clipPath id="clip0_447_353">
<rect width="52" height="42" fill="white"/>
</clipPath>
</defs>
</svg>
