<svg width="33" height="29" viewBox="0 0 33 29" fill="none" xmlns="http://www.w3.org/2000/svg">
<g clip-path="url(#clip0_424_626)">
<path d="M31.831 5.05516C30.9564 2.52063 28.6912 0.490213 25.9529 0.0841289C24.2324 -0.167923 22.3686 0.0981317 20.9063 1.06433C18.512 2.63266 17.3937 5.65728 17.322 8.40185C17.322 8.45786 17.322 8.51387 17.322 8.56988C17.322 9.76013 19.2145 9.76013 19.2145 8.56988C19.2145 8.37384 19.2288 8.1638 19.2432 7.96776C19.2432 7.86974 19.2575 7.75772 19.2718 7.6597C19.2718 7.61769 19.2718 7.57568 19.2862 7.51967C19.2862 7.51967 19.2862 7.50566 19.2862 7.49166C19.3292 7.2116 19.3865 6.93155 19.4439 6.65149C19.5156 6.32942 19.6016 6.02136 19.702 5.71329C19.7593 5.54526 19.8167 5.39123 19.874 5.22319C19.874 5.19519 19.9313 5.09717 19.9457 5.05516C19.96 5.01315 20.0174 4.91513 20.0174 4.88712C20.1751 4.55105 20.3615 4.22899 20.5622 3.92092C20.6195 3.83691 20.6769 3.76689 20.7199 3.69688C20.7486 3.66887 20.7486 3.64086 20.7629 3.64086C20.7629 3.64086 20.7629 3.64086 20.8059 3.59886C20.9349 3.45883 21.064 3.3048 21.193 3.17877C21.7235 2.66066 22.383 2.26858 23.1285 2.05854C23.8023 1.8625 24.4045 1.82049 25.15 1.84849C25.2503 1.84849 25.3507 1.84849 25.4511 1.8765C25.4654 1.8765 25.5801 1.8905 25.6374 1.90451C25.7521 1.93251 25.8812 1.94651 25.9959 1.97452C26.4977 2.08654 26.9421 2.25458 27.3722 2.49263C28.5192 3.10875 29.4367 4.13097 29.9098 5.33522C30.2969 6.31542 30.3256 7.29562 30.3256 8.33184V12.1966H15.1428V8.42986C15.1428 7.28162 15.1285 6.16139 14.7414 5.05516C13.8812 2.52063 11.6159 0.490213 8.87758 0.0841289C7.15715 -0.167923 5.29335 0.0981317 3.83099 1.06433C1.42239 2.63266 0.304106 5.65728 0.232422 8.38785C0.232422 8.44386 0.232422 8.49987 0.232422 8.55588C0.232422 9.74613 2.1249 9.74613 2.1249 8.55588C2.1249 8.35984 2.13923 8.1498 2.15357 7.95376C2.15357 7.85574 2.16791 7.74371 2.18224 7.64569C2.18224 7.60368 2.18224 7.56168 2.19658 7.50566C2.19658 7.50566 2.19658 7.49166 2.19658 7.47766C2.23959 7.1976 2.29694 6.91754 2.35429 6.63748C2.42597 6.31542 2.51199 6.00735 2.61235 5.69929C2.6697 5.53126 2.72705 5.37722 2.78439 5.20919C2.78439 5.18118 2.84174 5.08316 2.85608 5.04115C2.87041 4.99915 2.92776 4.90113 2.92776 4.87312C3.08547 4.53705 3.27185 4.21498 3.47257 3.90692C3.52991 3.8229 3.58726 3.75289 3.63027 3.68287C3.65895 3.65487 3.65895 3.62686 3.67328 3.62686C3.67328 3.62686 3.67328 3.62686 3.71629 3.58485C3.84533 3.44482 3.97436 3.29079 4.10339 3.16477C4.63386 2.64666 5.29335 2.25458 6.03887 2.04453C6.71271 1.84849 7.31486 1.80649 8.06038 1.83449C8.16074 1.83449 8.2611 1.83449 8.36145 1.8625C8.37579 1.8625 8.49049 1.8765 8.54783 1.8905C8.66253 1.91851 8.79156 1.93251 8.90626 1.96052C9.40805 2.07254 9.85249 2.24058 10.2826 2.47862C11.4296 3.09475 12.3471 4.11696 12.8202 5.32121C13.2073 6.30142 13.236 7.28162 13.236 8.31783V21.5366C13.236 23.679 13.1787 25.8355 13.236 27.9919C13.236 28.0199 13.236 28.0619 13.236 28.0899C13.236 29.2802 15.1285 29.2802 15.1285 28.0899V26.1435H30.2826C30.2826 26.7596 30.2826 27.3758 30.3113 27.9919C30.3113 28.0199 30.3113 28.0619 30.3113 28.0899C30.3113 29.2802 32.2037 29.2802 32.2037 28.0899V8.42986C32.2037 7.28162 32.1894 6.16139 31.8023 5.05516H31.831ZM19.96 14.045H30.3399V18.0639H15.1572V14.045H19.96ZM25.5371 24.3091H15.1572V19.9122H30.3399V21.5506C30.3399 22.4748 30.3399 23.385 30.3256 24.3091H25.5371Z" fill="#6AC17E"/>
</g>
<defs>
<clipPath id="clip0_424_626">
<rect width="32" height="29" fill="white" transform="translate(0.232422)"/>
</clipPath>
</defs>
</svg>
