<svg width="36" height="36" viewBox="0 0 36 36" fill="none" xmlns="http://www.w3.org/2000/svg">
<g clip-path="url(#clip0_447_381)">
<path d="M35.9999 35.5452C35.6723 36 35.2355 36.1273 34.8715 35.8545C34.6167 35.6726 34.5621 35.3997 34.5803 35.1086C34.5803 32.3254 34.5803 29.5422 34.5803 26.759C34.5803 26.2678 34.5803 26.2678 34.0889 26.377C31.7956 26.9227 29.5024 27.4684 27.191 28.0141C26.8634 28.0869 26.8634 28.2324 26.9362 28.5053C27.5004 30.5973 28.0646 32.6892 28.6288 34.763C28.647 34.8722 28.6834 34.9631 28.7016 35.0723C28.7926 35.5088 28.556 35.8909 28.1738 35.9818C27.7734 36.0728 27.3912 35.8909 27.2638 35.4725C27.1 34.9085 26.9544 34.3446 26.7906 33.7807C26.2628 31.8343 25.7532 29.8696 25.2254 27.9232C25.1344 27.6139 25.189 27.3593 25.2982 27.0682C26.6086 23.903 27.9008 20.7196 29.2112 17.5543C29.3568 17.2087 29.375 16.8631 29.3386 16.4992C29.1566 14.9894 28.9928 13.4795 28.8108 11.9697C28.647 10.5144 28.4832 9.07731 28.3194 7.62203C28.3012 7.34917 28.101 7.33098 27.9372 7.2764C26.3902 6.8762 24.8432 6.45781 23.2779 6.0576C22.5681 5.87569 21.8583 5.67559 21.1303 5.49368C20.8209 5.42092 20.6025 5.2572 20.4387 5.00253C19.7107 3.91107 18.9463 2.81961 18.2183 1.70995C18.0727 1.50985 17.9089 1.4189 17.6541 1.4189C14.9422 1.4189 12.2486 1.43709 9.53679 1.4189C9.24558 1.4189 9.11818 1.52804 9.04538 1.78272C8.18997 4.83881 7.29816 7.8949 6.44275 10.9328C6.33355 11.2966 6.16975 11.5513 5.86035 11.7696C5.13234 12.2607 4.44073 12.7883 3.73092 13.2612C3.49432 13.425 3.38512 13.6251 3.34872 13.8979C3.27592 14.7893 3.20312 15.6988 3.13032 16.5902C3.02111 17.7908 2.91191 18.9914 2.80271 20.192C2.69351 21.338 2.60251 22.4659 2.49331 23.6119C2.38411 24.8489 2.27491 26.1041 2.16571 27.3411C2.0565 28.4871 1.9655 29.615 1.8745 30.761C1.7653 31.998 1.6561 33.235 1.5469 34.4538C1.5287 34.7448 1.5287 35.0359 1.4741 35.3269C1.3831 35.7817 1.09189 36.0182 0.673289 35.9818C0.254684 35.9636 -0.0183191 35.6544 -0.000118932 35.2178C0.0544817 34.2173 0.145483 33.2168 0.236484 32.2163C0.345685 31.0339 0.454886 29.8696 0.564087 28.6872C0.673289 27.4502 0.78249 26.195 0.909891 24.9581C1.01909 23.812 1.11009 22.6842 1.20109 21.5382C1.3285 20.0283 1.4741 18.5366 1.6015 17.0268C1.7107 15.8444 1.8199 14.6801 1.8927 13.4977C1.9291 12.9884 2.0565 12.5882 2.52971 12.2971C3.25772 11.8242 3.94932 11.2784 4.67733 10.7691C4.89574 10.6054 5.04134 10.4234 5.11414 10.1506C5.98775 7.0763 6.86136 4.00202 7.75317 0.927741C7.84417 0.563921 7.93517 0.18191 8.31737 0C11.7936 0 15.2516 0 18.7279 0C18.9281 0.127337 19.0737 0.309247 19.2193 0.491157C19.9473 1.58262 20.6935 2.65589 21.4215 3.74735C21.5853 3.98383 21.7673 4.12936 22.0585 4.20212C24.3882 4.80243 26.6996 5.40273 29.011 6.00303C29.4296 6.11218 29.7026 6.31228 29.739 6.76705C29.8846 8.095 30.0484 9.44113 30.2122 10.7691C30.4124 12.4972 30.5944 14.2254 30.7946 15.9535C30.8492 16.4083 30.8492 16.8631 31.1404 17.2996C31.832 18.3547 32.4872 19.428 33.1606 20.5013C34.1071 22.0111 35.0717 23.5028 36.0181 24.9944C35.9999 28.5235 35.9999 32.0344 35.9999 35.5452ZM30.3214 18.8459C30.2668 18.9368 30.2304 18.955 30.2304 18.9914C29.2476 21.3926 28.2648 23.7938 27.2638 26.195C27.2274 26.2678 27.1728 26.3588 27.2456 26.4133C27.3184 26.4861 27.3912 26.4315 27.4822 26.4133C29.5752 25.9222 31.6682 25.4128 33.7613 24.9217C34.0889 24.8489 34.0707 24.7398 33.9069 24.5033C32.9968 23.0662 32.0868 21.6109 31.1768 20.1738C30.9038 19.7554 30.6308 19.3188 30.3214 18.8459Z" fill="#6AC17E"/>
<path d="M15.0153 12.97C15.0699 11.6966 15.5977 10.8052 16.6533 10.2777C17.7453 9.73196 19.074 9.96844 19.9294 10.8416C20.7848 11.7148 21.0032 13.0791 20.4026 14.1524C20.2206 14.4798 20.348 14.5708 20.5846 14.7709C21.3308 15.3712 22.0042 15.3712 22.7504 14.7709C23.2054 14.4252 23.7332 14.1524 24.3338 14.0614C25.5532 13.8977 26.8272 14.9346 26.8818 16.1716C26.9364 17.2085 26.4996 17.9543 25.626 18.4636C24.716 18.9912 23.8242 19.5005 22.9142 20.0281C22.5684 20.2282 22.1862 20.3919 21.7858 20.3737C21.44 20.3737 21.3854 20.5192 21.3854 20.8103C21.4036 22.0109 21.3854 23.2297 21.3854 24.4303C21.3854 26.977 21.3854 29.542 21.3854 32.0887C21.3854 33.3257 20.6028 34.2534 19.3652 34.4535C18.1821 34.6536 16.9809 33.7987 16.7807 32.5981C16.7443 32.3616 16.7261 32.1069 16.7261 31.8704C16.7261 29.9058 16.7079 27.9412 16.7261 25.9765C16.7261 25.6309 16.6351 25.4854 16.2711 25.5218C15.7251 25.5763 15.2519 25.3398 14.7969 25.0488C14.5603 24.8669 14.2873 24.5576 14.0143 24.6122C13.7413 24.6668 13.6503 25.1034 13.5047 25.358C13.1589 25.9765 12.6493 26.3949 11.9577 26.5223C11.0295 26.7042 10.2287 26.4495 9.62805 25.7037C9.04565 24.976 8.93645 24.121 9.35505 23.3025C9.95566 22.1564 10.5927 21.0104 11.3025 19.9371C11.8121 19.1549 12.6311 18.8457 13.5775 19.0094C13.8323 19.0458 13.9233 19.0276 13.9597 18.7183C13.9961 18.0998 13.8323 17.7178 13.2317 17.4813C12.9587 17.3904 12.7039 17.1903 12.4491 17.0447C12.0123 16.7901 11.6665 16.4626 11.4117 16.026C10.8111 14.9892 10.1923 13.9705 9.62805 12.9154C8.80904 11.3146 10.0103 9.4591 11.7939 9.53186C12.6675 9.56824 13.3227 10.0048 13.7595 10.7688C14.1599 11.4783 14.5603 12.1696 15.0153 12.97ZM19.893 25.7946C19.893 23.7208 19.893 21.6471 19.893 19.5733C19.893 18.6456 20.3844 18.3363 21.2034 18.7547C21.4946 18.9002 21.7858 18.9366 22.077 18.7729C23.0598 18.209 24.0244 17.6632 24.989 17.0811C25.2984 16.9174 25.4804 16.6264 25.4076 16.2625C25.2984 15.644 24.716 15.3712 24.1518 15.6804C23.4784 16.0442 22.8232 16.4262 22.168 16.8265C21.895 16.9902 21.6038 17.0447 21.3126 16.881C21.1306 16.7901 20.9486 16.6991 20.803 16.59C19.8748 15.9169 18.8738 15.5895 17.7089 15.7532C17.5087 15.7714 17.3085 15.7532 17.1083 15.7532C16.6897 15.7714 16.3439 15.6622 15.9981 15.4621C15.5613 15.1893 15.1245 14.9164 14.6513 14.6799C14.2327 14.4798 13.9597 14.1706 13.7413 13.7704C13.3045 12.97 12.8495 12.2059 12.3763 11.4237C12.1943 11.0963 11.8849 11.0053 11.5391 11.0599C11.2297 11.1145 11.0113 11.3146 10.9021 11.6056C10.8111 11.8785 10.8839 12.1332 11.0295 12.3697C11.5937 13.352 12.1579 14.3343 12.7221 15.3166C12.8313 15.4985 12.9769 15.6258 13.1407 15.7168C13.7413 16.0624 14.3419 16.4081 14.9425 16.7537C15.2337 16.9174 15.4157 17.1357 15.4157 17.4813C15.4157 18.4455 15.4339 19.4096 15.4157 20.3555C15.3975 20.9558 14.8333 21.2832 14.2873 20.9922C14.0689 20.8649 13.8505 20.7193 13.6321 20.592C13.1589 20.3191 12.7039 20.4283 12.4309 20.9012C11.8485 21.8654 11.3025 22.8477 10.7383 23.8118C10.6473 23.9755 10.5563 24.1574 10.6109 24.3757C10.7019 24.7577 10.9203 24.9942 11.3025 25.067C11.6483 25.1397 11.9213 24.976 12.1033 24.7032C12.3399 24.3393 12.5583 23.9391 12.7767 23.5571C13.3773 22.5566 13.5957 22.4839 14.5603 23.1387C15.3975 23.7027 16.2347 24.1574 17.3085 24.0483C17.9637 23.9755 18.2185 24.3211 18.2185 25.0124C18.2185 27.2863 18.2185 29.5783 18.2185 31.8522C18.2185 31.9796 18.2185 32.1069 18.2185 32.2342C18.2549 32.6162 18.5826 32.9437 18.9466 32.9801C19.2924 33.0164 19.6564 32.8163 19.802 32.4889C19.8748 32.307 19.8566 32.1251 19.8566 31.9432C19.893 29.8876 19.893 27.8502 19.893 25.7946ZM17.8727 14.1888C18.6372 14.1888 19.256 13.5885 19.256 12.8426C19.256 12.115 18.6008 11.4783 17.8727 11.4783C17.1447 11.4783 16.5441 12.0786 16.5441 12.8244C16.5259 13.6066 17.0901 14.1888 17.8727 14.1888Z" fill="#6AC17E"/>
<path d="M14.196 6.27608C14.014 6.27608 13.8138 6.29427 13.6318 6.27608C13.2496 6.2397 12.9766 5.96683 12.9402 5.60301C12.9038 5.23919 13.1404 4.91175 13.5044 4.8208C13.9594 4.71165 14.4326 4.72984 14.8876 4.8208C15.2516 4.89356 15.5064 5.23919 15.47 5.58482C15.4336 5.96683 15.1424 6.2397 14.742 6.27608C14.56 6.27608 14.378 6.27608 14.196 6.27608Z" fill="#6AC17E"/>
<path d="M6.75163 19.1913C6.55143 19.1913 6.35123 19.2095 6.15103 19.1913C5.76882 19.1549 5.49582 18.8639 5.47762 18.5001C5.45942 18.1544 5.67782 17.827 6.04182 17.7542C6.51503 17.6451 6.98823 17.6451 7.46144 17.7542C7.80724 17.827 8.04385 18.1726 8.02565 18.5001C7.98925 18.8639 7.71624 19.1549 7.35224 19.1913C7.15204 19.2095 6.95183 19.1913 6.75163 19.1913Z" fill="#6AC17E"/>
<path d="M8.15305 33.1075C7.97105 33.1075 7.77085 33.1257 7.58885 33.1075C7.20664 33.0711 6.93364 32.7982 6.89724 32.4344C6.86084 32.0888 7.09744 31.7432 7.46145 31.6704C7.91645 31.5613 8.38966 31.5795 8.84466 31.6704C9.20866 31.7432 9.46347 32.0888 9.42707 32.4344C9.39067 32.7982 9.09946 33.0893 8.69906 33.1257C8.51706 33.1075 8.33505 33.1075 8.15305 33.1075Z" fill="#6AC17E"/>
<path d="M24.4974 9.60462C24.6794 9.60462 24.8796 9.58643 25.0616 9.60462C25.4256 9.641 25.7168 9.93205 25.7532 10.2959C25.7896 10.6233 25.553 10.9689 25.2072 11.0417C24.734 11.1509 24.2608 11.1509 23.7876 11.0417C23.4236 10.9689 23.187 10.6233 23.2234 10.2595C23.2598 9.89567 23.551 9.62281 23.915 9.58643C24.097 9.58643 24.2972 9.60462 24.4974 9.60462Z" fill="#6AC17E"/>
<path d="M31.0856 31.6343C30.9036 31.6343 30.7398 31.6343 30.5578 31.6343C30.1574 31.6161 29.8844 31.3433 29.848 30.9795C29.8116 30.5793 30.0118 30.27 30.4122 30.1791C30.8672 30.0881 31.3222 30.0881 31.7772 30.1791C32.1594 30.2518 32.3778 30.5793 32.3596 30.9431C32.3414 31.3069 32.0684 31.5798 31.6862 31.6161C31.486 31.6343 31.2858 31.6343 31.0856 31.6343Z" fill="#6AC17E"/>
</g>
<defs>
<clipPath id="clip0_447_381">
<rect width="36" height="36" fill="white"/>
</clipPath>
</defs>
</svg>
