<svg width="47" height="43" viewBox="0 0 47 43" fill="none" xmlns="http://www.w3.org/2000/svg">
<g clip-path="url(#clip0_447_361)">
<path d="M23.5004 13.7964C27.0891 13.7964 30.0252 10.8634 30.0252 7.22654C30.0252 3.58967 27.0891 0.680176 23.5004 0.680176C19.9118 0.680176 16.9756 3.61314 16.9756 7.25001C16.9756 10.8869 19.9118 13.7964 23.5004 13.7964ZM23.5004 1.68911C26.5298 1.68911 29.0232 4.17627 29.0232 7.25001C29.0232 10.3238 26.5531 12.8109 23.5004 12.8109C20.4477 12.8109 17.9776 10.3003 17.9776 7.25001C17.9776 4.19973 20.4477 1.68911 23.5004 1.68911Z" fill="#6AC17E"/>
<path d="M46.2204 40.2167C46.1505 40.1932 39.7422 36.9787 37.0391 31.0189C36.3167 29.4234 35.9904 27.6167 35.6642 25.7161C35.2447 23.3697 34.8253 20.9295 33.5669 18.6535L33.5436 18.6301C32.1688 16.4245 30.9803 14.9697 27.3917 14.9697H25.5041H21.4727H19.5852C15.9965 14.9697 14.8081 16.4245 13.4332 18.6301V18.677C12.1748 20.953 11.7554 23.3697 11.3359 25.7396C11.0097 27.6401 10.6834 29.4468 9.96105 31.0424C8.56288 34.1396 6.13937 36.4625 4.36835 37.8703C2.4342 39.3954 0.802999 40.2167 0.779696 40.2401C0.523363 40.3574 0.430152 40.6625 0.546666 40.9206C0.639878 41.1083 0.802999 41.2021 0.989422 41.2021C1.05933 41.2021 1.12924 41.1787 1.19915 41.1552C1.26906 41.1317 2.92357 40.3105 4.95092 38.6915C4.99753 38.6681 5.04413 38.6211 5.09074 38.5742C4.67129 39.2077 4.46156 40.2167 4.90432 41.1083C5.27716 41.8356 6.20928 42.7038 8.63279 42.7038C8.67939 42.7038 8.726 42.7038 8.7726 42.7038C11.0796 42.6803 14.2721 42.1641 17.3714 41.6479C21.1465 41.0379 25.4575 40.334 26.576 40.9206C26.8324 41.0379 27.1353 40.944 27.2518 40.7094C27.3217 40.5451 27.3217 40.3809 27.2285 40.2167C27.4849 40.287 27.7179 40.3574 27.9742 40.4278C31.6794 41.5306 35.5244 42.6569 38.1576 42.6803C38.2042 42.6803 38.2508 42.6803 38.2974 42.6803C40.7209 42.6803 41.653 41.8122 42.0259 41.0848C42.492 40.1463 42.2356 39.0904 41.7696 38.4803C41.8628 38.5507 41.9327 38.6211 42.0259 38.6681C44.0533 40.2636 45.7078 41.0848 45.7777 41.1317C45.8476 41.1552 45.9175 41.1787 45.9874 41.1787C46.1738 41.1787 46.3602 41.0848 46.4302 40.8971C46.57 40.639 46.4535 40.334 46.2204 40.2167ZM29.8152 19.7798C29.5355 19.7329 29.2792 19.944 29.2559 20.2256C29.2559 20.2725 28.7665 24.0267 27.881 26.4669C26.9023 29.1887 26.343 30.9954 26.7625 33.2949C27.1819 35.5708 29.5588 36.3217 30.724 36.6971C30.8638 36.744 30.9803 36.7675 31.0502 36.8144C31.3065 36.9083 31.8658 36.9552 32.9611 37.0725C35.2447 37.2837 39.9519 37.753 40.954 39.0669C41.1637 39.372 41.42 40.0524 41.1171 40.639C40.7675 41.3429 39.7189 41.7183 38.1576 41.6949C35.6642 41.6714 31.726 40.4982 28.2306 39.4893C23.5001 38.1049 20.5406 37.2837 19.2822 37.9172C19.0259 38.0345 18.9327 38.3396 19.0725 38.5977C19.189 38.8558 19.492 38.9496 19.7483 38.8088C20.0279 38.6681 20.7503 38.5742 22.6612 38.9965C23.5001 39.1843 24.4322 39.4189 25.4342 39.7005C23.5234 39.6301 20.5173 40.0993 17.185 40.639C14.109 41.1317 10.9631 41.6479 8.726 41.6714C7.1647 41.6949 6.11607 41.3194 5.76652 40.6155C5.46359 40.0289 5.71992 39.3485 5.92965 39.0435C6.93167 37.7295 11.6622 37.2602 13.9226 37.0491C15.0178 36.9317 15.5771 36.8848 15.8334 36.791C15.9266 36.7675 16.0431 36.7206 16.1596 36.6736C17.3015 36.2982 19.7017 35.5474 20.1211 33.2714C20.5406 30.9954 19.9813 29.1653 19.0026 26.4435C18.187 24.0032 17.6976 20.2491 17.6743 20.2021C17.6277 19.9206 17.3947 19.7329 17.1151 19.7563C16.8354 19.8032 16.649 20.0379 16.6723 20.3194C16.6956 20.4837 17.185 24.2144 18.0938 26.772C19.0026 29.3295 19.5386 30.9954 19.1657 33.0602C18.8628 34.7262 16.9286 35.3597 15.88 35.6882C15.7402 35.7351 15.6237 35.782 15.5072 35.8055C15.344 35.8524 14.5517 35.9463 13.8293 36.0167C10.8233 36.2982 7.84049 36.6736 6.13937 37.5887C7.79388 36.1105 9.63481 34.0222 10.8233 31.4178C11.6156 29.7049 11.9418 27.8513 12.268 25.8803C12.6642 23.6278 13.0836 21.2815 14.2488 19.1463C15.4839 17.1753 16.3927 15.9787 19.5386 15.9787H21.4727H25.5041H27.3917C30.5375 15.9787 31.4464 17.1753 32.6814 19.1463C33.8466 21.2815 34.266 23.6044 34.6622 25.8803C35.0117 27.8513 35.338 29.7049 36.107 31.4178C37.3187 34.0692 39.2062 36.1809 40.8608 37.6826C39.2062 36.7206 36.1303 36.3451 33.0543 36.0401C32.3552 35.9697 31.5396 35.8993 31.3765 35.8289C31.2832 35.782 31.1434 35.7586 31.0036 35.7116C29.955 35.3831 28.0208 34.7496 27.7179 33.0837C27.345 30.9954 27.881 29.3295 28.7898 26.7954C29.6986 24.2379 30.188 20.4837 30.2113 20.3429C30.2812 20.0613 30.0948 19.8032 29.8152 19.7798Z" fill="#6AC17E"/>
</g>
<defs>
<clipPath id="clip0_447_361">
<rect width="46" height="42" fill="white" transform="translate(0.5 0.680176)"/>
</clipPath>
</defs>
</svg>
