<svg width="36" height="34" viewBox="0 0 36 34" fill="none" xmlns="http://www.w3.org/2000/svg">
<g clip-path="url(#clip0_441_434)">
<path d="M36 20.0175C35.6424 20.5994 35.8212 21.2478 35.7562 21.863C35.6586 22.6943 35.3823 23.4424 34.8785 24.1075C34.716 24.3236 34.6347 24.5397 34.6022 24.8224C34.3584 27.4991 32.1968 29.7603 29.5801 30.1094C28.6374 30.2424 27.711 30.1593 26.8171 29.8434C26.6221 29.7769 26.4921 29.7935 26.3458 29.9431C25.2406 31.1568 23.8428 31.8884 22.3638 32.5035C21.99 32.6532 21.6975 32.5368 21.5674 32.2209C21.4374 31.905 21.5512 31.6057 21.925 31.4395C22.8352 31.0405 23.7291 30.6248 24.5255 30.0263C25.0943 29.6106 25.6144 29.1285 26.0045 28.5133C26.8334 27.1999 26.7358 25.8698 25.7282 24.6894C24.623 23.4092 23.1927 22.661 21.665 22.0791C21.5187 22.0292 21.3887 22.0791 21.2749 22.1622C19.2758 23.4757 17.0329 24.0908 14.6925 24.3568C13.5223 24.4898 12.3521 24.5231 11.1819 24.4233C10.7431 24.3901 10.483 24.1906 10.483 23.8248C10.483 23.4757 10.8081 23.2097 11.2307 23.2429C11.6695 23.2928 12.1246 23.2762 12.5634 23.2762C14.725 23.2762 16.8379 22.9436 18.837 22.1123C19.9909 21.6302 21.0636 20.9984 21.9088 20.0341C23.0952 18.6708 23.079 16.9417 21.86 15.6116C20.7386 14.4145 19.3571 13.7163 17.8293 13.2175C17.6018 13.1343 17.3092 13.1676 17.0654 13.2009C15.2288 13.4004 13.3923 13.3671 11.5557 13.3172C10.483 13.3006 9.37783 13.2341 8.28889 13.0678C7.7688 12.9847 7.31372 13.1842 6.85864 13.3505C5.50966 13.8326 4.24194 14.4977 3.23427 15.5784C2.77919 16.0605 2.43788 16.6258 2.30786 17.2908C2.09657 18.3216 2.43788 19.2028 3.07174 19.9842C3.93314 21.0317 5.05458 21.6801 6.2898 22.1788C6.95616 22.4449 7.63878 22.6776 8.33765 22.8273C8.46767 22.8605 8.58144 22.8938 8.71147 22.9436C9.13404 23.0766 9.31282 23.3427 9.2153 23.6752C9.11779 24.0077 8.84149 24.174 8.43517 24.0742C7.65503 23.9079 6.89115 23.6918 6.14352 23.3925C5.72095 23.2263 5.29837 23.0268 4.89205 22.8273C4.76203 22.7608 4.64826 22.7109 4.50199 22.794C3.55932 23.2928 2.69792 23.8747 2.0153 24.706C0.828849 26.1358 0.89386 27.7984 2.16158 29.1617C3.21801 30.2757 4.51824 30.974 5.89973 31.506C7.7688 32.2375 9.71914 32.6199 11.7182 32.7696C14.2374 32.9691 16.7404 32.8361 19.2108 32.304C19.6496 32.2043 19.9422 32.3705 20.0072 32.7197C20.0884 33.1021 19.8772 33.3515 19.4221 33.4512C17.1304 33.9666 14.8063 34.1329 12.4821 34.0165C9.68664 33.8835 6.95616 33.3681 4.38822 32.1378C3.00673 31.4727 1.73901 30.6414 0.828849 29.3446C-0.325101 27.6987 -0.26009 25.6537 1.00763 24.0908C1.60898 23.3593 2.30786 22.7608 3.10424 22.262C3.51056 22.0126 3.51056 22.0126 3.153 21.7133C2.2916 21.015 1.60898 20.1671 1.28393 19.0698C0.796343 17.4072 1.30018 16.0106 2.38912 14.7969C3.21801 13.8659 4.25819 13.2009 5.41214 12.6854C5.20086 12.5524 4.98957 12.5358 4.79454 12.4859C3.60808 12.17 2.40537 11.8708 1.3977 11.0894C0.422528 10.3246 0.390023 9.26051 1.36519 8.46247C2.04781 7.91381 2.8442 7.61454 3.67309 7.34853C4.48573 7.08251 5.33088 6.89963 6.17603 6.75C6.15977 6.58374 6.02975 6.53386 5.93223 6.45073C4.66452 5.30354 4.58325 3.54119 5.72095 2.261C6.17603 1.7456 6.72862 1.3632 7.32998 1.06393C7.68754 0.881047 7.99634 0.964177 8.14262 1.26344C8.30515 1.54608 8.19138 1.8786 7.85007 2.07811C7.32998 2.37738 6.82614 2.67665 6.45232 3.19205C5.91598 3.92359 5.94849 4.75489 6.54984 5.43655C7.16745 6.15146 7.98009 6.55049 8.85774 6.8165C11.0194 7.49816 13.1972 7.51479 15.3426 6.8165C16.1878 6.55049 16.9842 6.16809 17.6018 5.50305C18.3331 4.70501 18.3331 3.75733 17.6018 2.97591C16.9842 2.31088 16.204 1.94511 15.3751 1.66247C13.8636 1.16369 12.3196 1.06393 10.7431 1.26344C10.5805 1.28007 10.418 1.28007 10.2555 1.28007C9.93043 1.26344 9.75165 1.06393 9.71914 0.764666C9.68664 0.465399 9.84916 0.232637 10.1255 0.166133C10.4343 0.0996293 10.7431 0.0497515 11.0681 0.0331256C13.1972 -0.0832558 15.2776 0.116255 17.1954 1.21357C17.8618 1.59596 18.4307 2.07811 18.8532 2.72652C19.5196 3.79058 19.4546 5.05415 18.6744 6.03508C18.5932 6.13484 18.4307 6.23459 18.4794 6.35097C18.5282 6.48398 18.7232 6.46736 18.8532 6.46736C20.381 6.61699 21.8925 6.89963 23.3553 7.34853C24.1354 7.58129 24.883 7.88056 25.5494 8.36271C26.6383 9.17738 26.6546 10.2913 25.5819 11.1226C24.5905 11.8708 23.4203 12.1867 22.2501 12.4693C21.6 12.6356 20.9498 12.7353 20.2997 12.885C20.3322 13.0512 20.4785 13.0678 20.5923 13.1177C21.7787 13.816 22.8352 14.6473 23.5015 15.9109C23.5828 16.0605 23.6641 16.0771 23.8103 15.9774C24.1842 15.728 24.5905 15.5285 25.013 15.3955C25.1431 15.3456 25.2243 15.2625 25.3218 15.1627C26.1507 14.348 27.1259 14.1153 28.1986 14.5143C29.2388 14.9133 29.8239 15.728 29.9214 16.8752C29.9376 17.1079 30.0027 17.1578 30.2302 17.0913C30.734 16.9251 31.2541 16.8918 31.7905 16.9417C31.9693 16.9583 32.1318 16.9417 32.3106 16.8752C33.9521 16.2434 35.4799 17.0082 35.9837 18.7373C36 18.7705 36.0162 18.8038 36.0162 18.837C36 19.2527 36 19.6351 36 20.0175ZM13.7498 12.17C14.79 12.1534 16.074 12.1368 17.358 12.037C19.1783 11.8708 20.9823 11.638 22.7539 11.1392C23.469 10.9397 24.1842 10.6903 24.818 10.2581C25.3544 9.87567 25.3544 9.65953 24.818 9.27714C24.3304 8.92799 23.7616 8.71185 23.1927 8.52897C21.4537 7.96369 19.6659 7.73093 17.8618 7.53141C17.293 7.46491 16.7891 7.51479 16.2365 7.74755C14.725 8.37934 13.1322 8.57885 11.4907 8.47909C10.3855 8.41259 9.31282 8.24633 8.27264 7.84731C7.93133 7.7143 7.60628 7.68105 7.24871 7.74755C6.74488 7.84731 6.24104 7.91381 5.7372 8.03019C4.63201 8.26295 3.54307 8.52897 2.53539 9.07763C2.24284 9.24388 1.83652 9.39352 1.83652 9.77591C1.83652 10.1583 2.24284 10.3079 2.53539 10.4576C3.34804 10.9065 4.22569 11.1559 5.11959 11.3554C7.88257 11.9872 10.6781 12.1867 13.7498 12.17ZM27.7435 27.0669C27.8248 27.0004 27.8735 26.9837 27.9223 26.9505C29.32 25.8365 29.9214 23.5255 29.2875 21.7133C29.1738 21.3808 29.1413 21.0815 29.255 20.7324C29.5638 19.7847 29.4663 18.8703 28.9625 18.0057C28.8162 17.7564 28.7512 17.4903 28.7512 17.1911C28.7674 16.4595 28.4099 15.8943 27.8248 15.6449C27.1747 15.3788 26.5408 15.5285 26.0532 16.0938C25.8582 16.3265 25.6307 16.4595 25.3544 16.5427C24.8993 16.659 24.493 16.8918 24.1191 17.2077C23.9891 17.3241 23.9241 17.4737 23.9566 17.6566C24.0216 17.9891 23.9566 18.3216 23.8916 18.6542C23.7291 19.5353 23.2902 20.2835 22.7051 20.9485C22.5426 21.1314 22.5751 21.2145 22.7864 21.2977C23.2577 21.4806 23.7128 21.6967 24.1354 21.9793C24.4117 22.1622 24.5417 22.0791 24.6392 21.7798C24.9155 21.0317 25.2243 20.2835 25.5169 19.552C25.5981 19.3358 25.7119 19.1363 25.9557 19.0864C26.167 19.0532 26.3458 19.0698 26.5083 19.2527C26.7033 19.4688 26.6871 19.7016 26.5896 19.951C26.2483 20.7989 25.9232 21.6634 25.5656 22.5114C25.4681 22.7608 25.5006 22.8938 25.6957 23.06C26.4433 23.6752 27.0284 24.4067 27.4022 25.3045C27.646 25.8365 27.7273 26.4185 27.7435 27.0669ZM27.3209 28.7793C28.1173 29.0453 28.865 29.0453 29.6288 28.9123C31.6279 28.5964 33.3345 26.6845 33.4645 24.6229C33.497 24.1906 33.6108 23.8248 33.9033 23.4923C34.5209 22.7608 34.7485 21.8796 34.6022 20.9153C34.5697 20.6659 34.6022 20.4165 34.716 20.1837C35.041 19.4854 34.9435 18.8038 34.4397 18.305C33.9683 17.8229 33.2857 17.7065 32.6194 18.039C32.3431 18.172 32.083 18.2053 31.8067 18.1388C31.4167 18.039 31.0428 18.1554 30.669 18.2053C30.4252 18.2385 30.3602 18.3715 30.4252 18.6043C30.6365 19.3857 30.604 20.1671 30.3927 20.9485C30.3765 21.015 30.3602 21.0815 30.344 21.1647C30.3277 21.2312 30.344 21.3143 30.409 21.3642C30.4902 21.4141 30.539 21.3309 30.5878 21.281C30.7178 21.148 30.8478 20.9984 30.9941 20.882C31.2541 20.6659 31.5792 20.6825 31.7905 20.8987C32.018 21.1314 32.018 21.4307 31.7742 21.6967C31.5629 21.9461 31.3354 22.1955 31.0753 22.4116C30.7828 22.661 30.7015 22.9603 30.6853 23.3427C30.6528 25.238 29.9214 26.7842 28.4911 27.9979C28.1336 28.2806 27.7435 28.4967 27.3209 28.7793Z" fill="#6AC17E"/>
<path d="M17.8135 16.127C17.8135 16.4263 17.521 16.7089 17.2447 16.6923C16.9521 16.6923 16.6758 16.3931 16.6921 16.1104C16.6921 15.8111 16.9846 15.5285 17.2609 15.5451C17.5535 15.5618 17.8135 15.8278 17.8135 16.127Z" fill="#6AC17E"/>
<path d="M15.1962 3.67432C15.4887 3.67432 15.765 3.94033 15.765 4.2396C15.765 4.53886 15.5212 4.80488 15.2124 4.8215C14.9036 4.8215 14.6436 4.57212 14.6436 4.27285C14.6436 3.95696 14.9036 3.69094 15.1962 3.67432Z" fill="#6AC17E"/>
<path d="M6.35449 26.9503C6.33824 27.2496 6.06194 27.5156 5.76939 27.499C5.47684 27.4824 5.2168 27.1997 5.2168 26.9005C5.2168 26.6012 5.49309 26.3352 5.8019 26.3518C6.1107 26.3684 6.37075 26.6511 6.35449 26.9503Z" fill="#6AC17E"/>
<path d="M14.0592 2.74316C14.368 2.74316 14.628 2.97593 14.628 3.29182C14.6443 3.60771 14.4005 3.8571 14.0754 3.87373C13.7829 3.87373 13.5228 3.62434 13.5066 3.32507C13.4903 3.0258 13.7504 2.74316 14.0592 2.74316Z" fill="#6AC17E"/>
<path d="M5.0708 25.8532C4.762 25.8532 4.50195 25.6204 4.50195 25.3045C4.50195 24.9886 4.74575 24.7393 5.05455 24.7393C5.37961 24.7393 5.6234 24.972 5.6234 25.2879C5.6234 25.5872 5.37961 25.8532 5.0708 25.8532Z" fill="#6AC17E"/>
<path d="M8.38672 9.26057C8.38672 9.55984 8.12668 9.82585 7.81787 9.82585C7.50907 9.82585 7.24902 9.55984 7.24902 9.26057C7.24902 8.9613 7.50907 8.71191 7.81787 8.71191C8.12668 8.71191 8.38672 8.9613 8.38672 9.26057Z" fill="#6AC17E"/>
</g>
<defs>
<clipPath id="clip0_441_434">
<rect width="36" height="34" fill="white"/>
</clipPath>
</defs>
</svg>
