<svg version="1.2" xmlns="http://www.w3.org/2000/svg" viewBox="0 0 782 110" width="782" height="110">
	<title>logo-svg</title>
	<style>
		.s0 { fill: #000000 } 
	</style>
	<path class="s0" d="m455.3 109.4h-0.8q-9.2 0-17.4-4-8.1-4-11.3-9.9l17.8-17.8q3.8 5.4 9.5 5.4 4.3 0 7.3-3 3-3 3-7.4l-0.1-64.6 27.3-8.2v75.3q0 16.7-9.7 25.4-9.6 8.8-25.6 8.8z"/>
	<path fill-rule="evenodd" class="s0" d="m599 107.9h-28.6l-6.6-13.5h-40.1l-6.5 13.5h-28.6l54.8-105h0.6zm-46.5-36.2l-8.7-18-8.8 18z"/>
	<path fill-rule="evenodd" class="s0" d="m648.6 107.9h-45.6v-105h45.6q22.1 0 36.6 14.8 14.6 14.8 14.6 37.6 0 23-14.6 37.8-14.5 14.8-36.6 14.8zm-4.8-23.3q13.1 0 20.9-7.9 7.8-8 7.8-21.4 0-13.3-7.8-21.3-7.7-8-20.9-8h-13.6v58.6z"/>
	<path class="s0" d="m766.8 107.9h-58.7v-105h58.7l15 23.1h-46.5v16.3h38.2v23.3h-38.2v19h46.5z"/>
	<g>
		<path class="s0" d="m74 106h-73.9v-102.3h74v23.9h-47.9v15.1h44.3v23.9h-44.3v15.5h47.8z"/>
		<path class="s0" d="m158.2 59.2v-55.6h25.5v102.4h-19.5l-46.6-54.8v54.8h-25.3v-102.3l18.5-0.1z"/>
		<path class="s0" d="m237.5 107.8q-25.6 0-41.7-17.7l13-19q12.9 12.9 29.1 12.9 4.9 0 8.2-2 3.3-2 3.3-5.5 0-4.8-8.3-7.9l-9.1-3q-9.9-3.6-13-5.3-16.9-9-16.9-26.6 0-13.6 10.6-22.6 10.7-9 27.5-9 20.9 0 36.4 12.9l-12 19.7q-4.6-3.8-11.4-6.1-6.8-2.4-12.6-2.4-5.1 0-8.1 1.9-2.9 1.9-2.9 4.8 0 4.4 8.2 7.6l9 3.3q7.5 2.7 11.8 4.5 19.5 8.3 19.5 26.8 0 14.2-11 23.6-11 9.1-29.6 9.1z"/>
		<path fill-rule="evenodd" class="s0" d="m343.8 0.2c-8.5 0-16.6 1.9-23.8 5.4 3.4-0.8 8-2 11.6-2 22.9 0 41.4 18.6 41.4 41.5 0 7.9-2.2 15.3-6.1 21.7q-0.1 0.1-0.1 0.1-0.7 1.2-1.5 2.3c-3.6 4.8-10 8.9-16.1 10.2-1.7 0.4-3.5 0.6-5.4 0.6-14 0-25.5-11.4-25.5-25.5 0-14.1 11.5-25.5 25.5-25.5 12.4 0 22.7 8.8 25 20.5q0.2-1.9 0.2-3.8c0-17.9-12.3-33-29-37.3-21.4-5.4-42.3 12.1-48.8 31.8-7.1 21.8 1.6 45.8 21.8 59.9 19.2 13.3 47.1 11.6 64.8-3.3 17-14.3 23.7-37.8 17.7-58.7-3.5-11.9-12-22.7-22.3-29.3-8.8-5.6-19-8.6-29.4-8.6zm21.5 69z"/>
	</g>
</svg>